<?xml version="1.0" encoding="UTF-8"?>
<svg id="Layer_1" xmlns="http://www.w3.org/2000/svg" version="1.1" viewBox="0 0 980.9 430.3">
  <!-- Generator: Adobe Illustrator 29.2.1, SVG Export Plug-In . SVG Version: 2.1.0 Build 116)  -->
  <defs>
    <style>
      .st0 {
        fill: #080e0b;
      }

      .st1 {
        fill: #2b4438;
      }

      .st2 {
        fill: #f7f5f2;
      }

      .st3, .st4 {
        fill: #0e261c;
      }

      .st5 {
        fill: #f7f5f1;
      }

      .st6 {
        fill: #6d964f;
      }

      .st7 {
        fill: #d5d4c6;
      }

      .st8 {
        fill: #f7f4f0;
      }

      .st9 {
        fill: #f6f1e8;
      }

      .st10, .st11 {
        fill: #4d7038;
      }

      .st12 {
        fill: #2c4539;
      }

      .st4 {
        font-size: 100.7px;
      }

      .st4, .st11 {
        font-family: ArialRoundedMTBold, 'Arial Rounded MT Bold';
      }

      .st11 {
        font-size: 50px;
      }

      .st13 {
        fill: #f8f5f1;
      }

      .st14 {
        fill: #2c4639;
      }

      .st15 {
        fill: #6c954e;
      }

      .st16 {
        fill: #0a100d;
      }

      .st17 {
        fill: #2b4539;
      }
    </style>
  </defs>
  <rect class="st13" x="-1042.6" y="-1561.1" width="1024" height="1024"/>
  <path class="st14" d="M-792.7-941.1c-.2-.1-2.1-.4-2,.5.6,11.2-2.5,23.1-6.5,33.5s-8.4,18.8-11.6,22.4-11.9,4.8-12.8-1.9,4.8-10.9,8.1-16.8c6.6-11.6,8.7-28.5,9.8-41.7l-11,11.5c-37.1,30.9-98.9,4.4-110.3-39.7-3.8-14.8,19.6-21.5,30.8-21.8s6.5,1.1,10,1.1,8.1-.9,8.5-1.1,0-2.6-.2-3.3c-1.7-5.1-19.8-8.4-25.3-10.7-42.1-17.1-44.7-64.1-38.2-103.3s1.4-16.6,10.4-18.6c19.2-4.1,46.6,4.5,61.3,17.3,4.9,4.3,15.8,20.2,20.6,20.5,7.4.5,1.7-14.1-.2-17.9-8.4-16.9-15.4-23-13.3-44.5,2.6-25.8,32.2-60.3,52.4-75.6,12.6-9.5,14.6-7.2,26,2,23.5,19,53.6,55.4,50.4,87.4-1.7,17.1-10.8,23.2-15.4,36.6s-4,13.7,2.5,11.6,17.2-18.4,22.5-22.6c13.9-11.1,40.5-17.7,57.9-15,10.7,1.6,11.2,18.8,12.4,27.6,6.7,49.4-3,93.6-33.5,133.3s-68.2,68.6-98.4,36.6-4.6-7.3-5-7.5Z"/>
  <path class="st17" d="M-567.1-1168.1l38.5,66v-64.5c0-.1,1.4-1.5,1.5-1.5h16c.1,0,1.5,1.4,1.5,1.5v102c0,.1-1.4,1.5-1.5,1.5h-17l-39.5-66v64.5c0,.1-1.4,1.5-1.5,1.5h-16c-.1,0-1.5-1.4-1.5-1.5v-102c0-.1,1.4-1.5,1.5-1.5h18Z"/>
  <path class="st14" d="M-189.6-1167.1c15.5,2.7,25.1,10,30.8,24.7,9.5,24.6,5.5,69.1-24.8,76.8-9.9,2.5-36.7,4.1-46.5,2.5s-2.3-.6-2.5-2l.9-101.4c13.7-1.6,27.8-1.8,42.1-.6Z"/>
  <path class="st14" d="M-409.6-1063.1h-18.5c-2.7,0-5.6-19.9-8.5-22.5-1.4-.9-30.3-.9-32,0-3.3,1.7-5.8,22.5-8.5,22.5h-17c-.5,0-1.6-1.7-1.5-2.5l31.2-102.3c.9-.6,19.1-.5,21.3-.1s2.3.8,3,2l31.1,98.9-.6,4Z"/>
  <path class="st12" d="M-376.6-1127.1c1.2-.6,1.5,0,2.9-1.6,4.5-5,26.2-39.4,28.6-39.4h20c1,0,2.2,2.9,1,4l-32.5,47.5c10.1,17.8,23.3,33.8,34,51.1.3.8-1.2,2.5-1.5,2.5h-21l-28.7-42.3-2.8-1.7v42.5c0,2.1-13.3,1.8-15.5,1.5s-3.5-.4-3.5-2l.6-100.5c1.3-3.2,16-2.5,17.5-1,.5,13.5.8,26.7,1,39.5Z"/>
  <path class="st12" d="M-250.6-1082.1c-.3,1,1,2.2,1,2.5v15c0,1.1-2.4,1.4-3.4,1.6-11.5,1.3-37.2.9-49.1,0-2-.2-3.8,0-4.9-2.1v-101c.2-.5,1.8-2,2-2h53c.1,0,1.5,1.4,1.5,1.5v16c0,.1-1.4,1.5-1.5,1.5h-34c-.2,0-2.5,2.3-2.5,2.5v20c0,.1,1.4,1.5,1.5,1.5h28c.1,0,1.5,1.4,1.5,1.5v15c0,.1-1.4,1.5-1.5,1.5h-28c-.1,0-1.5,1.4-1.5,1.5v22c0,.1,1.4,1.5,1.5,1.5h36.5Z"/>
  <path class="st1" d="M-254.6-1000.6c0-.2,2.3-4.9-1-2.5s-3.5,8.2-4.5,10c-3.6,6.7-7.6,13.2-11,20-3.2,2-7.7,2.6-10.4-.6-5.4-8.5-9.5-17.8-14.6-26.4-.6-1.1-1-2.7-2.5-3l.8,48.3c-1.2,4.2-14.9,3.9-15.6.1l.3-74.4c1.7-3.4,12.9-2,16.5-1.5l21,35.5,19.4-35.1c2.9-2.1,12.8-.9,16.6,0v76.5c0,2.3-15,2.3-15,0,1.2-15-1.6-32.3,0-47Z"/>
  <path class="st1" d="M-382.1-1031.1h24c1.8,0,10.2,1.9,12.5,2.5,27.3,8.2,27.9,58.2,4.8,71.7-1.6.9-10.2,4.8-11.2,4.8h-30c-.1,0-1.5-1.4-1.5-1.5v-76c0-.3,1.2-1,1.5-1.5Z"/>
  <path class="st17" d="M-498.9-1031.8c36.3-4.2,42.9,42.9,29.4,67.4-11.1,20.2-45,17.6-53.7-4.7-8.7-22.4-5.1-59.3,24.3-62.7Z"/>
  <path class="st1" d="M-561.1-1031.1c2.1.2,6.9,1.3,9.1,1.9,20.9,6.3,22.1,40.3,1.5,47.5l15,28c-.1,2.1-13.9,2-16,1s-10.6-21.8-12.5-25.5c-.7-1.3-7.5-1.4-7.5-1v26c-2.3,1.1-15,2-15-.5v-76c0-.1,1.4-1.5,1.5-1.5,7.6,0,16.7-.7,24,0Z"/>
  <path class="st17" d="M-393.6-952.1h-14.5c-2-1.7-5-16.9-6.1-17.1-5.8,1.2-17.9-1.5-22.8.2-3.1,1-3.7,14.6-6.6,16.4s-10.6-.1-14,.5c5.5-25.7,14.8-50.5,21.5-76l1.5-2.5c3.2-.5,15.9-1.5,17.5.5l23.5,78Z"/>
  <path class="st17" d="M-164.6-952.1h-15l-4.9-16.4c-1-1.5-20.5-.2-24-.5-1.8,3.2-3.5,14.8-6.1,16.4s-10.6-.1-14,.5c-.7-.6,2-9.3,2.5-11,5.9-20.1,12.3-44.2,19.5-63.5,1.1-3,1-4.1,4.5-4.5s12.9-.4,14.1,1l23.5,78Z"/>
  <path class="st17" d="M-130.1-1031.1c19.8,1.8,31.3,17.7,25.2,37.2-5.2,16.7-19.3,18-34.7,17.8-.6,3.8,1.2,22.1-.9,23.6-1.5,1-14.1.9-14.1-1.1v-76c0-.1,1.4-1.5,1.5-1.5,7.3,0,15.9-.6,23,0Z"/>
  <path class="st0" d="M-376.6-1127.1c-.7.4-.9,2.4-1-.5-.2-5.6.9-36.6-.4-38.6s-15.6-1.9-16.4.7l-1.1,100.4v-99.6c-.3-1,.7-3.4,1.5-3.4h16c1.1,0,1.4,2.4,1.6,3.4,1.4,11.6-1.1,25.7,0,37.6Z"/>
  <path class="st16" d="M-189.6-1167.1c-3.2,2.6-7.9.1-11.5,0s-28.3-.4-29.6.5-.7.7-.8,1.2l-1.1,100.4v-101.4c.3-.5.5-.9.9-1.2,2.2-1.5,37-.3,42.1.6Z"/>
  <path class="st6" d="M-805.6-996.1c-1.1-.1-1.8-1.3-2.4-2.1-19.7-25.7-51.7-54.8-78.7-73.3s-14.1-6.1-11,5c10.2,7.4,20.8,14.4,30.5,22.5,18.6,15.3,51.1,43.5,58.5,66.5s.3,1.6-.5,1.5c-12.7-7-26.3-5.2-39.7-1.7s-12.1,3.1-13.3,5.7-.2,8,3.2,8.9,12.7-4.9,16.1-5.6c7.8-1.6,19.4-2.7,26.6.8,3,1.5,4.5,4.1,7.6,4.9-15.8,24.1-38.2,37.5-67.5,28-19.2-6.2-32.9-24.1-41.4-41.6.2-2.3,12.1-5.1,14.5-5.4,10.6-1.1,20.7,3.2,30.3-3.7s7.8-14.1,1.6-21.5c-8.1-9.6-19.1-9.4-29.9-14.1-14.6-6.4-25.2-17.6-30.1-32.9-6.5-20.1-1.3-41.7.6-62.3.3-1.3,1.2-1.5,2.3-1.7,8.8-1.6,23.2,1.2,31.7,4.3s16.7,8.6,23.3,15.7,8.1,12.2,13.9,15.1c12.5,6,24.6-2.8,23.4-16.4s-16.7-30.4-17-50.1,24.8-50.4,40.1-64,11-10,13.3-9.4,6.2,5,7.2,5.9c15.5,13.7,42.5,43.5,44.5,64.5,2.2,22.9-16.3,36.1-16.9,55.1s4.6,13.5,9.4,15.4c14.4,5.7,23.8-12.4,32.6-20.6,13.6-12.7,33.2-16.1,51.1-16,3.9,8.1,3.4,17.3,4,26s2.3,26.9-1.3,36.7-8.8,10.5-12.8,13.2c-21.3,14.6-51.3,8.6-74.9,17.6,14.2-16.1,31.5-28.5,49.5-39.9,4.8-4.2,1.8-11.3-4.6-9.6-10.9,7.9-23.4,14.8-33.5,23.5-18.8,16.4-34.2,38.1-50.5,57v-79.5c0-9.3,10.9-24.5,16.6-32.4,3.9-5.3,8.1-10.5,12.9-15.1,2.5-5.4-2.1-10.2-7.5-8.5-7.6,7.9-13,17.7-19.7,26.3-.6.8,0,1.8-2.3,1.3v-74.5c0-.4-3.3-3.5-4.5-3.5s-5.5,4.2-5.5,4.5v55.5c-5.4-3.7-15.4-21.4-20-23.5s-7.9,0-8.1,4,8.1,11.3,11.1,15,17,21.5,17,26v102.5Z"/>
  <path class="st9" d="M-694.6-1022.1c4.5-1.4,2.2,3.6-1.9,3.7-9.4,25.7-27.6,53.7-51,70.7-.8,2.7-2.7,7.1-4.1,2.7,1.6-5.7,2.2-17.5,2-23.5-.4-11.7-5-27.2-4.5-38s8.6-8.8,15.3-10.2c14.5-2.9,29.7-2.6,44.2-5.3Z"/>
  <path class="st7" d="M-694.6-1022.1c-.1-1.2,7.7-3,9.4-4.1l14.6-7.8c-9.4,33.3-30.3,65.6-58.7,85.8-6.1,4.3-16.6,11-23.9,12.1-1.4.2-3,.6-2.4-1.4s2.2-4.3,3-7,.9-.5,1-.5c1.5,2.3,1.2-2.5,2.3-3.7s4.1-2.2,5.7-3.8c20.1-18.9,36.5-41.1,45.5-67.5l4.5-1c-.1-.5-1-.8-1-1Z"/>
  <path class="st15" d="M-765.6-1014.1c-2.7,20.3,11.7,57.4-2.1,74.4-.7.8-.7,1.6-2.2,1.5-8.5-.7-17.9-18.8-24.2-23.9-.9-1.9-.9-9.2-.6-11.5.5-4.1,19.6-31,23.5-35.5s3.5-3.7,5.5-5Z"/>
  <path class="st13" d="M-212.6-1082.1v-65.5c0-.1,1.4-1.5,1.5-1.5h17c6,0,13.7,6.4,16.2,11.8,6.1,12.9,5.6,43.9-8.4,52.1-1,.6-8.2,3.1-8.9,3.1h-17.5Z"/>
  <path class="st5" d="M-440.6-1103.1h-22.5c-.1,0-1.9-1.4-1.1-2.1,4.5-10.8,6.3-23.8,10.6-34.5.4-1,.7-2.3,2-2.5l11,39Z"/>
  <path class="st5" d="M-368.6-967.1v-49h15.5c4.2,0,9.6,6.2,11,10,3.1,8.4,3.2,24.5-2,31.9s-15.8,7.3-24.4,7.1Z"/>
  <path class="st5" d="M-485-969.4c-3.8,3.8-10.6,4.2-15.5,2.7-15.8-4.9-17.3-53.5,8.2-50.3,17.4,2.2,16.9,37.9,7.3,47.6Z"/>
  <path class="st8" d="M-571.6-1017.1c12.6-2.2,25.3,3.9,19.7,18.2-3.1,7.9-19.7,8-19.7,5.3v-23.5Z"/>
  <polygon class="st5" points="-417.6 -983.1 -434.6 -983.1 -426.1 -1010.1 -417.6 -983.1"/>
  <path class="st2" d="M-188.6-983.1h-17c2.8-8.9,7.1-17.6,8-27,1.5.2,1.5,1.5,1.9,2.6,2.8,7.9,4,16.6,7.1,24.4Z"/>
  <path class="st5" d="M-139.6-1016.1c7,0,16.9-1.7,20.1,6.4,2.2,5.5,1.9,15-4.3,17.8s-15.7,3.4-15.7.3v-24.5Z"/>
  <path class="st17" d="M418.2-1168.1l38.5,66v-64.5c0-.1,1.4-1.5,1.5-1.5h16c.1,0,1.5,1.4,1.5,1.5v102c0,.1-1.4,1.5-1.5,1.5h-17l-39.5-66v64.5c0,.1-1.4,1.5-1.5,1.5h-16c-.1,0-1.5-1.4-1.5-1.5v-102c0-.1,1.4-1.5,1.5-1.5h18Z"/>
  <path class="st14" d="M795.7-1167.1c15.5,2.7,25.1,10,30.8,24.7,9.5,24.6,5.5,69.1-24.8,76.8-9.9,2.5-36.7,4.1-46.5,2.5s-2.3-.6-2.5-2l.9-101.4c13.7-1.6,27.8-1.8,42.1-.6Z"/>
  <path class="st14" d="M575.7-1063.1h-18.5c-2.7,0-5.6-19.9-8.5-22.5-1.4-.9-30.3-.9-32,0-3.3,1.7-5.8,22.5-8.5,22.5h-17c-.5,0-1.6-1.7-1.5-2.5l31.2-102.3c.9-.6,19.1-.5,21.3-.1s2.3.8,3,2l31.1,98.9-.6,4Z"/>
  <path class="st12" d="M608.7-1127.1c1.2-.6,1.5,0,2.9-1.6,4.5-5,26.2-39.4,28.6-39.4h20c1,0,2.2,2.9,1,4l-32.5,47.5c10.1,17.8,23.3,33.8,34,51.1.3.8-1.2,2.5-1.5,2.5h-21l-28.7-42.3-2.8-1.7v42.5c0,2.1-13.3,1.8-15.5,1.5s-3.5-.4-3.5-2l.6-100.5c1.3-3.2,16-2.5,17.5-1,.5,13.5.8,26.7,1,39.5Z"/>
  <path class="st12" d="M734.7-1082.1c-.3,1,1,2.2,1,2.5v15c0,1.1-2.4,1.4-3.4,1.6-11.5,1.3-37.2.9-49.1,0-2-.2-3.8,0-4.9-2.1v-101c.2-.5,1.8-2,2-2h53c.1,0,1.5,1.4,1.5,1.5v16c0,.1-1.4,1.5-1.5,1.5h-34c-.2,0-2.5,2.3-2.5,2.5v20c0,.1,1.4,1.5,1.5,1.5h28c.1,0,1.5,1.4,1.5,1.5v15c0,.1-1.4,1.5-1.5,1.5h-28c-.1,0-1.5,1.4-1.5,1.5v22c0,.1,1.4,1.5,1.5,1.5h36.5Z"/>
  <path class="st1" d="M730.7-1000.6c0-.2,2.3-4.9-1-2.5s-3.5,8.2-4.5,10c-3.6,6.7-7.6,13.2-11,20-3.2,2-7.7,2.6-10.4-.6-5.4-8.5-9.5-17.8-14.6-26.4-.6-1.1-1-2.7-2.5-3l.8,48.3c-1.2,4.2-14.9,3.9-15.6.1l.3-74.4c1.7-3.4,12.9-2,16.5-1.5l21,35.5,19.4-35.1c2.9-2.1,12.8-.9,16.6,0v76.5c0,2.3-15,2.3-15,0,1.2-15-1.6-32.3,0-47Z"/>
  <path class="st1" d="M603.2-1031.1h24c1.8,0,10.2,1.9,12.5,2.5,27.3,8.2,27.9,58.2,4.8,71.7-1.6.9-10.2,4.8-11.2,4.8h-30c-.1,0-1.5-1.4-1.5-1.5v-76c0-.3,1.2-1,1.5-1.5Z"/>
  <path class="st17" d="M486.5-1031.8c36.3-4.2,42.9,42.9,29.4,67.4-11.1,20.2-45,17.6-53.7-4.7-8.7-22.4-5.1-59.3,24.3-62.7Z"/>
  <path class="st1" d="M424.2-1031.1c2.1.2,6.9,1.3,9.1,1.9,20.9,6.3,22.1,40.3,1.5,47.5l15,28c-.1,2.1-13.9,2-16,1s-10.6-21.8-12.5-25.5c-.7-1.3-7.5-1.4-7.5-1v26c-2.3,1.1-15,2-15-.5v-76c0-.1,1.4-1.5,1.5-1.5,7.6,0,16.7-.7,24,0Z"/>
  <path class="st17" d="M591.7-952.1h-14.5c-2-1.7-5-16.9-6.1-17.1-5.8,1.2-17.9-1.5-22.8.2-3.1,1-3.7,14.6-6.6,16.4s-10.6-.1-14,.5c5.5-25.7,14.8-50.5,21.5-76l1.5-2.5c3.2-.5,15.9-1.5,17.5.5l23.5,78Z"/>
  <path class="st17" d="M820.7-952.1h-15l-4.9-16.4c-1-1.5-20.5-.2-24-.5-1.8,3.2-3.5,14.8-6.1,16.4s-10.6-.1-14,.5c-.7-.6,2-9.3,2.5-11,5.9-20.1,12.3-44.2,19.5-63.5,1.1-3,1-4.1,4.5-4.5s12.9-.4,14.1,1l23.5,78Z"/>
  <path class="st17" d="M855.2-1031.1c19.8,1.8,31.3,17.7,25.2,37.2-5.2,16.7-19.3,18-34.7,17.8-.6,3.8,1.2,22.1-.9,23.6-1.5,1-14.1.9-14.1-1.1v-76c0-.1,1.4-1.5,1.5-1.5,7.3,0,15.9-.6,23,0Z"/>
  <path class="st0" d="M608.7-1127.1c-.7.4-.9,2.4-1-.5-.2-5.6.9-36.6-.4-38.6s-15.6-1.9-16.4.7l-1.1,100.4v-99.6c-.3-1,.7-3.4,1.5-3.4h16c1.1,0,1.4,2.4,1.6,3.4,1.4,11.6-1.1,25.7,0,37.6Z"/>
  <path class="st16" d="M795.7-1167.1c-3.2,2.6-7.9.1-11.5,0s-28.3-.4-29.6.5-.7.7-.8,1.2l-1.1,100.4v-101.4c.3-.5.5-.9.9-1.2,2.2-1.5,37-.3,42.1.6Z"/>
  <g>
    <path class="st14" d="M192.7,334.6c-.2-.1-2.1-.4-2,.5.6,11.2-2.5,23.1-6.5,33.5-1.9,4.9-8.4,18.8-11.6,22.4s-11.9,4.8-12.8-1.9,4.8-10.9,8.1-16.8c6.6-11.6,8.7-28.5,9.8-41.7l-11,11.5c-37.1,30.9-98.9,4.4-110.3-39.7-3.8-14.8,19.6-21.5,30.8-21.8s6.5,1.1,10,1.1,8.1-.9,8.5-1.1,0-2.6-.2-3.3c-1.7-5.1-19.8-8.4-25.3-10.7-42.1-17.1-44.7-64.1-38.2-103.3s1.4-16.6,10.4-18.6c19.2-4.1,46.6,4.5,61.3,17.3,4.9,4.3,15.8,20.2,20.6,20.5,7.4.5,1.7-14.1-.2-17.9-8.4-16.9-15.4-23-13.3-44.5,2.6-25.8,32.2-60.3,52.4-75.6,12.6-9.5,14.6-7.2,26,2,23.5,19,53.6,55.4,50.4,87.4-1.7,17.1-10.8,23.2-15.4,36.6s-4,13.7,2.5,11.6c3.8-1.2,17.2-18.4,22.5-22.6,13.9-11.1,40.5-17.7,57.9-15,10.7,1.6,11.2,18.8,12.4,27.6,6.7,49.4-3,93.6-33.5,133.3s-68.2,68.6-98.4,36.6-4.6-7.3-5-7.5Z"/>
    <path class="st6" d="M179.7,279.6c-1.1-.1-1.8-1.3-2.4-2.1-19.7-25.7-51.7-54.8-78.7-73.3-7-4.8-14.1-6.1-11,5,10.2,7.4,20.8,14.4,30.5,22.5,18.6,15.3,51.1,43.5,58.5,66.5s.3,1.6-.5,1.5c-12.7-7-26.3-5.2-39.7-1.7-3.2.8-12.1,3.1-13.3,5.7s-.2,8,3.2,8.9,12.7-4.9,16.1-5.6c7.8-1.6,19.4-2.7,26.6.8,3,1.5,4.5,4.1,7.6,4.9-15.8,24.1-38.2,37.5-67.5,28-19.2-6.2-32.9-24.1-41.4-41.6.2-2.3,12.1-5.1,14.5-5.4,10.6-1.1,20.7,3.2,30.3-3.7s7.8-14.1,1.6-21.5c-8.1-9.6-19.1-9.4-29.9-14.1-14.6-6.4-25.2-17.6-30.1-32.9-6.5-20.1-1.3-41.7.6-62.3.3-1.3,1.2-1.5,2.3-1.7,8.8-1.6,23.2,1.2,31.7,4.3,9.2,3.3,16.7,8.6,23.3,15.7s8.1,12.2,13.9,15.1c12.5,6,24.6-2.8,23.4-16.4s-16.7-30.4-17-50.1c-.3-21.3,24.8-50.4,40.1-64s11-10,13.3-9.4,6.2,5,7.2,5.9c15.5,13.7,42.5,43.5,44.5,64.5,2.2,22.9-16.3,36.1-16.9,55.1s4.6,13.5,9.4,15.4c14.4,5.7,23.8-12.4,32.6-20.6,13.6-12.7,33.2-16.1,51.1-16,3.9,8.1,3.4,17.3,4,26,.7,10.3,2.3,26.9-1.3,36.7-1.6,4.5-8.8,10.5-12.8,13.2-21.3,14.6-51.3,8.6-74.9,17.6,14.2-16.1,31.5-28.5,49.5-39.9,4.8-4.2,1.8-11.3-4.6-9.6-10.9,7.9-23.4,14.8-33.5,23.5-18.8,16.4-34.2,38.1-50.5,57v-79.5c0-9.3,10.9-24.5,16.6-32.4,3.9-5.3,8.1-10.5,12.9-15.1,2.5-5.4-2.1-10.2-7.5-8.5-7.6,7.9-13,17.7-19.7,26.3-.6.8,0,1.8-2.3,1.3v-74.5c0-.4-3.3-3.5-4.5-3.5s-5.5,4.2-5.5,4.5v55.5c-5.4-3.7-15.4-21.4-20-23.5-3.4-1.6-7.9,0-8.1,4-.2,4.2,8.1,11.3,11.1,15s17,21.5,17,26v102.5Z"/>
    <path class="st9" d="M290.7,253.6c4.5-1.4,2.2,3.6-1.9,3.7-9.4,25.7-27.6,53.7-51,70.7-.8,2.7-2.7,7.1-4.1,2.7,1.6-5.7,2.2-17.5,2-23.5-.4-11.7-5-27.2-4.5-38s8.6-8.8,15.3-10.2c14.5-2.9,29.7-2.6,44.2-5.3Z"/>
    <path class="st7" d="M290.7,253.6c-.1-1.2,7.7-3,9.4-4.1l14.6-7.8c-9.4,33.3-30.3,65.6-58.7,85.8-6.1,4.3-16.6,11-23.9,12.1-1.4.2-3,.6-2.4-1.4s2.2-4.3,3-7,.9-.5,1-.5c1.5,2.3,1.2-2.5,2.3-3.7s4.1-2.2,5.7-3.8c20.1-18.9,36.5-41.1,45.5-67.5l4.5-1c-.1-.5-1-.8-1-1Z"/>
    <path class="st15" d="M219.7,261.6c-2.7,20.3,11.7,57.4-2.1,74.4-.7.8-.7,1.6-2.2,1.5-8.5-.7-17.9-18.8-24.2-23.9-.9-1.9-.9-9.2-.6-11.5.5-4.1,19.6-31,23.5-35.5s3.5-3.7,5.5-5Z"/>
  </g>
  <path class="st14" d="M192.7-941.1c-.2-.1-2.1-.4-2,.5.6,11.2-2.5,23.1-6.5,33.5-1.9,4.9-8.4,18.8-11.6,22.4s-11.9,4.8-12.8-1.9,4.8-10.9,8.1-16.8c6.6-11.6,8.7-28.5,9.8-41.7l-11,11.5c-37.1,30.9-98.9,4.4-110.3-39.7-3.8-14.8,19.6-21.5,30.8-21.8s6.5,1.1,10,1.1,8.1-.9,8.5-1.1,0-2.6-.2-3.3c-1.7-5.1-19.8-8.4-25.3-10.7-42.1-17.1-44.7-64.1-38.2-103.3s1.4-16.6,10.4-18.6c19.2-4.1,46.6,4.5,61.3,17.3,4.9,4.3,15.8,20.2,20.6,20.5,7.4.5,1.7-14.1-.2-17.9-8.4-16.9-15.4-23-13.3-44.5,2.6-25.8,32.2-60.3,52.4-75.6,12.6-9.5,14.6-7.2,26,2,23.5,19,53.6,55.4,50.4,87.4-1.7,17.1-10.8,23.2-15.4,36.6s-4,13.7,2.5,11.6c3.8-1.2,17.2-18.4,22.5-22.6,13.9-11.1,40.5-17.7,57.9-15,10.7,1.6,11.2,18.8,12.4,27.6,6.7,49.4-3,93.6-33.5,133.3s-68.2,68.6-98.4,36.6-4.6-7.3-5-7.5Z"/>
  <path class="st6" d="M179.7-996.1c-1.1-.1-1.8-1.3-2.4-2.1-19.7-25.7-51.7-54.8-78.7-73.3-7-4.8-14.1-6.1-11,5,10.2,7.4,20.8,14.4,30.5,22.5,18.6,15.3,51.1,43.5,58.5,66.5s.3,1.6-.5,1.5c-12.7-7-26.3-5.2-39.7-1.7-3.2.8-12.1,3.1-13.3,5.7s-.2,8,3.2,8.9,12.7-4.9,16.1-5.6c7.8-1.6,19.4-2.7,26.6.8,3,1.5,4.5,4.1,7.6,4.9-15.8,24.1-38.2,37.5-67.5,28-19.2-6.2-32.9-24.1-41.4-41.6.2-2.3,12.1-5.1,14.5-5.4,10.6-1.1,20.7,3.2,30.3-3.7s7.8-14.1,1.6-21.5c-8.1-9.6-19.1-9.4-29.9-14.1-14.6-6.4-25.2-17.6-30.1-32.9-6.5-20.1-1.3-41.7.6-62.3.3-1.3,1.2-1.5,2.3-1.7,8.8-1.6,23.2,1.2,31.7,4.3,9.2,3.3,16.7,8.6,23.3,15.7s8.1,12.2,13.9,15.1c12.5,6,24.6-2.8,23.4-16.4s-16.7-30.4-17-50.1c-.3-21.3,24.8-50.4,40.1-64s11-10,13.3-9.4,6.2,5,7.2,5.9c15.5,13.7,42.5,43.5,44.5,64.5,2.2,22.9-16.3,36.1-16.9,55.1s4.6,13.5,9.4,15.4c14.4,5.7,23.8-12.4,32.6-20.6,13.6-12.7,33.2-16.1,51.1-16,3.9,8.1,3.4,17.3,4,26,.7,10.3,2.3,26.9-1.3,36.7-1.6,4.5-8.8,10.5-12.8,13.2-21.3,14.6-51.3,8.6-74.9,17.6,14.2-16.1,31.5-28.5,49.5-39.9,4.8-4.2,1.8-11.3-4.6-9.6-10.9,7.9-23.4,14.8-33.5,23.5-18.8,16.4-34.2,38.1-50.5,57v-79.5c0-9.3,10.9-24.5,16.6-32.4,3.9-5.3,8.1-10.5,12.9-15.1,2.5-5.4-2.1-10.2-7.5-8.5-7.6,7.9-13,17.7-19.7,26.3-.6.8,0,1.8-2.3,1.3v-74.5c0-.4-3.3-3.5-4.5-3.5s-5.5,4.2-5.5,4.5v55.5c-5.4-3.7-15.4-21.4-20-23.5-3.4-1.6-7.9,0-8.1,4-.2,4.2,8.1,11.3,11.1,15s17,21.5,17,26v102.5Z"/>
  <path class="st9" d="M290.7-1022.1c4.5-1.4,2.2,3.6-1.9,3.7-9.4,25.7-27.6,53.7-51,70.7-.8,2.7-2.7,7.1-4.1,2.7,1.6-5.7,2.2-17.5,2-23.5-.4-11.7-5-27.2-4.5-38s8.6-8.8,15.3-10.2c14.5-2.9,29.7-2.6,44.2-5.3Z"/>
  <path class="st7" d="M290.7-1022.1c-.1-1.2,7.7-3,9.4-4.1l14.6-7.8c-9.4,33.3-30.3,65.6-58.7,85.8-6.1,4.3-16.6,11-23.9,12.1-1.4.2-3,.6-2.4-1.4s2.2-4.3,3-7,.9-.5,1-.5c1.5,2.3,1.2-2.5,2.3-3.7s4.1-2.2,5.7-3.8c20.1-18.9,36.5-41.1,45.5-67.5l4.5-1c-.1-.5-1-.8-1-1Z"/>
  <path class="st15" d="M219.7-1014.1c-2.7,20.3,11.7,57.4-2.1,74.4-.7.8-.7,1.6-2.2,1.5-8.5-.7-17.9-18.8-24.2-23.9-.9-1.9-.9-9.2-.6-11.5.5-4.1,19.6-31,23.5-35.5s3.5-3.7,5.5-5Z"/>
  <path class="st13" d="M772.7-1082.1v-65.5c0-.1,1.4-1.5,1.5-1.5h17c6,0,13.7,6.4,16.2,11.8,6.1,12.9,5.6,43.9-8.4,52.1-1,.6-8.2,3.1-8.9,3.1h-17.5Z"/>
  <path class="st5" d="M544.7-1103.1h-22.5c-.1,0-1.9-1.4-1.1-2.1,4.5-10.8,6.3-23.8,10.6-34.5.4-1,.7-2.3,2-2.5l11,39Z"/>
  <path class="st5" d="M616.7-967.1v-49h15.5c4.2,0,9.6,6.2,11,10,3.1,8.4,3.2,24.5-2,31.9s-15.8,7.3-24.4,7.1Z"/>
  <path class="st5" d="M500.4-969.4c-3.8,3.8-10.6,4.2-15.5,2.7-15.8-4.9-17.3-53.5,8.2-50.3,17.4,2.2,16.9,37.9,7.3,47.6Z"/>
  <path class="st8" d="M413.7-1017.1c12.6-2.2,25.3,3.9,19.7,18.2s-19.7,8-19.7,5.3v-23.5Z"/>
  <polygon class="st5" points="567.7 -983.1 550.7 -983.1 559.2 -1010.1 567.7 -983.1"/>
  <path class="st2" d="M796.7-983.1h-17c2.8-8.9,7.1-17.6,8-27,1.5.2,1.5,1.5,1.9,2.6,2.8,7.9,4,16.6,7.1,24.4Z"/>
  <path class="st5" d="M845.7-1016.1c7,0,16.9-1.7,20.1,6.4,2.2,5.5,1.9,15-4.3,17.8s-15.7,3.4-15.7.3v-24.5Z"/>
  <g>
    <path class="st3" d="M404.7,98.1l28.1,42.5v-42.9c0-2.8.6-4.9,1.8-6.3s2.8-2.1,4.8-2.1,3.8.7,5,2.1c1.2,1.4,1.8,3.5,1.8,6.3v56.7c0,6.3-2.6,9.5-7.9,9.5s-2.5-.2-3.5-.6c-1-.4-2-1-3-1.8s-1.8-1.8-2.6-2.9c-.8-1.1-1.6-2.2-2.4-3.4l-27.4-42v42.2c0,2.8-.6,4.8-1.9,6.2-1.3,1.4-2.9,2.1-4.9,2.1s-3.7-.7-5-2.1c-1.2-1.4-1.9-3.5-1.9-6.2v-55.6c0-2.4.3-4.2.8-5.6.6-1.5,1.7-2.7,3.1-3.6,1.4-.9,3-1.4,4.7-1.4s2.4.2,3.4.6c.9.4,1.8,1,2.5,1.7.7.7,1.4,1.7,2.2,2.8.7,1.1,1.5,2.3,2.3,3.6Z"/>
    <path class="st3" d="M495.2,156.3c-3.2,2.5-6.4,4.4-9.4,5.7s-6.4,1.9-10.2,1.9-6.5-.7-9.1-2-4.6-3.2-6-5.5c-1.4-2.3-2.1-4.9-2.1-7.6s1.2-6.8,3.5-9.4c2.3-2.6,5.5-4.3,9.6-5.2.9-.2,3-.6,6.3-1.3,3.4-.7,6.3-1.3,8.7-1.9,2.4-.6,5-1.3,7.8-2.1-.2-3.5-.9-6.1-2.1-7.8-1.3-1.7-3.9-2.5-7.8-2.5s-6,.5-7.7,1.4c-1.7,1-3.2,2.4-4.4,4.3-1.2,1.9-2.1,3.2-2.6,3.8-.5.6-1.6.9-3.3.9s-2.8-.5-3.9-1.5c-1.1-1-1.6-2.2-1.6-3.7,0-2.4.8-4.7,2.5-6.9s4.3-4.1,7.8-5.5c3.5-1.4,8-2.2,13.2-2.2s10.5.7,13.9,2.1,5.8,3.6,7.2,6.6c1.4,3,2.1,7,2.1,12s0,5.8,0,8c0,2.2,0,4.6,0,7.3,0,2.5.4,5.2,1.3,7.9.8,2.7,1.3,4.5,1.3,5.3,0,1.4-.6,2.6-1.9,3.8-1.3,1.1-2.8,1.7-4.4,1.7s-2.7-.6-4.1-1.9-2.8-3.2-4.3-5.6ZM494.3,136.9c-2,.7-4.8,1.5-8.6,2.3-3.8.8-6.4,1.4-7.8,1.8s-2.8,1.1-4.1,2.2c-1.3,1.1-2,2.6-2,4.6s.8,3.8,2.3,5.2c1.5,1.4,3.6,2.1,6,2.1s5.1-.6,7.4-1.7c2.2-1.2,3.9-2.7,4.9-4.5,1.2-2,1.8-5.4,1.8-10v-1.9Z"/>
    <path class="st3" d="M554.5,157.7l-11.9-19.5-7.3,6.9v10.7c0,2.6-.7,4.6-2,6-1.4,1.4-2.9,2.1-4.7,2.1s-3.7-.7-4.9-2.1-1.8-3.4-1.8-6.1v-57.2c0-3,.6-5.3,1.7-6.8,1.1-1.6,2.8-2.3,4.9-2.3s3.7.7,4.9,2.1c1.2,1.4,1.8,3.5,1.8,6.2v32.6l15.1-15.8c1.9-2,3.3-3.3,4.3-4,1-.7,2.2-1.1,3.6-1.1s3.1.5,4.2,1.6,1.7,2.4,1.7,4-1.8,4.6-5.5,7.9l-7.1,6.5,13.8,21.6c1,1.6,1.7,2.8,2.2,3.7.4.8.7,1.6.7,2.4,0,2.1-.6,3.8-1.7,5-1.2,1.2-2.7,1.8-4.6,1.8s-2.9-.4-3.8-1.3c-.9-.9-2.1-2.5-3.6-4.8Z"/>
    <path class="st3" d="M612.5,139.9h-26.3c0,3,.6,5.7,1.8,8.1,1.2,2.3,2.8,4.1,4.8,5.3,2,1.2,4.2,1.8,6.6,1.8s3.1-.2,4.4-.6c1.3-.4,2.6-1,3.9-1.8,1.2-.8,2.4-1.7,3.4-2.6,1-.9,2.4-2.2,4.1-3.7.7-.6,1.7-.9,3-.9s2.5.4,3.3,1.1c.9.8,1.3,1.8,1.3,3.2s-.5,2.6-1.4,4.3-2.4,3.2-4.3,4.7c-1.9,1.5-4.3,2.7-7.2,3.7-2.9,1-6.2,1.5-10,1.5-8.6,0-15.3-2.5-20.1-7.4-4.8-4.9-7.2-11.6-7.2-20s.6-7.6,1.8-11c1.2-3.4,2.9-6.3,5.2-8.7s5-4.3,8.4-5.6c3.3-1.3,7-1.9,11-1.9s9.7,1.1,13.5,3.3c3.8,2.2,6.6,5.1,8.4,8.6,1.9,3.5,2.8,7.1,2.8,10.7s-1,5.6-2.9,6.6-4.7,1.5-8.2,1.5ZM586.2,132.3h24.3c-.3-4.6-1.6-8-3.7-10.3-2.1-2.3-5-3.4-8.5-3.4s-6.1,1.2-8.2,3.5c-2.1,2.3-3.5,5.7-3.9,10.3Z"/>
    <path class="st3" d="M671.7,156.2v-1.3c-1.8,2.1-3.6,3.7-5.3,5-1.8,1.3-3.7,2.3-5.7,3-2,.7-4.3,1-6.7,1s-6.2-.7-8.9-2c-2.7-1.4-5.1-3.3-7.1-5.8-2-2.5-3.5-5.5-4.5-8.9-1-3.4-1.5-7.1-1.5-11.1,0-8.4,2-14.9,6.1-19.6,4.1-4.7,9.5-7,16.2-7s7.1.7,9.8,2c2.7,1.3,5.2,3.4,7.8,6.1v-19.8c0-2.8.5-4.8,1.6-6.2,1.1-1.4,2.7-2.1,4.7-2.1s3.6.6,4.7,1.9,1.6,3.2,1.6,5.7v59.2c0,2.6-.6,4.5-1.8,5.8-1.2,1.3-2.7,1.9-4.6,1.9s-3.4-.7-4.5-2c-1.2-1.3-1.8-3.2-1.8-5.7ZM645.2,136.5c0,3.6.6,6.7,1.7,9.3,1.1,2.6,2.7,4.5,4.6,5.8,2,1.3,4.1,1.9,6.4,1.9s4.5-.6,6.5-1.8c2-1.2,3.5-3.1,4.7-5.7,1.2-2.5,1.7-5.7,1.7-9.5s-.6-6.6-1.7-9.2c-1.2-2.6-2.7-4.5-4.7-5.9-2-1.4-4.2-2-6.5-2s-4.7.7-6.6,2.1c-1.9,1.4-3.4,3.4-4.5,6-1.1,2.6-1.6,5.6-1.6,9.1Z"/>
    <path class="st3" d="M405.3,232.5h-5.1v23.2c0,3-.7,5.3-2,6.7s-3.1,2.2-5.3,2.2-4.1-.8-5.4-2.3c-1.3-1.5-1.9-3.7-1.9-6.6v-55.5c0-3.1.7-5.4,2.1-6.8s3.7-2.1,6.8-2.1h23.8c3.3,0,6.1.1,8.4.4s4.4.8,6.3,1.7c2.3,1,4.3,2.3,6,4.1,1.7,1.8,3.1,3.8,4,6.2.9,2.3,1.4,4.8,1.4,7.5,0,5.4-1.5,9.7-4.5,12.9-3,3.2-7.6,5.5-13.8,6.8,2.6,1.4,5.1,3.4,7.4,6.1,2.4,2.7,4.5,5.5,6.3,8.6,1.9,3,3.3,5.8,4.3,8.2,1,2.4,1.5,4.1,1.5,5s-.3,1.9-.9,2.8c-.6.9-1.4,1.7-2.5,2.2-1,.5-2.3.8-3.6.8s-3-.4-4.1-1.2c-1.1-.8-2.1-1.7-2.9-2.9-.8-1.2-1.9-2.9-3.3-5.2l-5.9-9.7c-2.1-3.6-4-6.3-5.6-8.2-1.7-1.9-3.3-3.1-5-3.8-1.7-.7-3.9-1-6.4-1ZM413.6,202.2h-13.5v19.8h13.1c3.5,0,6.5-.3,8.9-.9,2.4-.6,4.2-1.6,5.5-3.1,1.3-1.5,1.9-3.5,1.9-6s-.5-3.8-1.5-5.3c-1-1.5-2.4-2.7-4.2-3.4-1.7-.7-5.1-1.1-10.1-1.1Z"/>
    <path class="st3" d="M504.9,237.3c0,4-.6,7.7-1.9,11.1-1.2,3.4-3,6.3-5.4,8.7-2.4,2.4-5.2,4.3-8.5,5.6-3.3,1.3-7,1.9-11.1,1.9s-7.7-.7-11-2c-3.2-1.3-6.1-3.2-8.4-5.6-2.4-2.4-4.2-5.3-5.4-8.7-1.2-3.3-1.8-7-1.8-11s.6-7.8,1.9-11.2c1.2-3.4,3-6.3,5.4-8.7,2.3-2.4,5.1-4.2,8.5-5.5,3.3-1.3,7-1.9,11-1.9s7.8.7,11.1,2c3.3,1.3,6.1,3.2,8.5,5.6,2.4,2.4,4.2,5.3,5.4,8.7,1.2,3.3,1.8,7,1.8,11.1ZM491.4,237.3c0-5.5-1.2-9.7-3.6-12.8s-5.6-4.6-9.7-4.6-4.9.7-6.9,2c-2,1.4-3.5,3.4-4.6,6-1.1,2.7-1.6,5.8-1.6,9.3s.5,6.6,1.6,9.2c1.1,2.6,2.6,4.6,4.6,6,2,1.4,4.3,2.1,7,2.1,4.1,0,7.3-1.5,9.7-4.6,2.4-3.1,3.6-7.3,3.6-12.7Z"/>
    <path class="st3" d="M549.4,257c-3.2,2.5-6.4,4.4-9.4,5.7s-6.4,1.9-10.2,1.9-6.5-.7-9.1-2-4.6-3.2-6-5.5c-1.4-2.3-2.1-4.9-2.1-7.6s1.2-6.8,3.5-9.4c2.3-2.6,5.5-4.3,9.6-5.2.9-.2,3-.6,6.3-1.3,3.4-.7,6.3-1.3,8.7-1.9,2.4-.6,5-1.3,7.8-2.1-.2-3.5-.9-6.1-2.1-7.8-1.3-1.7-3.9-2.5-7.8-2.5s-6,.5-7.7,1.4c-1.7,1-3.2,2.4-4.4,4.3-1.2,1.9-2.1,3.2-2.6,3.8-.5.6-1.6.9-3.3.9s-2.8-.5-3.9-1.5c-1.1-1-1.6-2.2-1.6-3.7,0-2.4.8-4.7,2.5-6.9s4.3-4.1,7.8-5.5c3.5-1.4,8-2.2,13.2-2.2s10.5.7,13.9,2.1,5.8,3.6,7.2,6.6c1.4,3,2.1,7,2.1,12s0,5.8,0,8c0,2.2,0,4.6,0,7.3,0,2.5.4,5.2,1.3,7.9.8,2.7,1.3,4.5,1.3,5.3,0,1.4-.6,2.6-1.9,3.8-1.3,1.1-2.8,1.7-4.4,1.7s-2.7-.6-4.1-1.9-2.8-3.2-4.3-5.6ZM548.5,237.6c-2,.7-4.8,1.5-8.6,2.3-3.8.8-6.4,1.4-7.8,1.8s-2.8,1.1-4.1,2.2c-1.3,1.1-2,2.6-2,4.6s.8,3.8,2.3,5.2c1.5,1.4,3.6,2.1,6,2.1s5.1-.6,7.4-1.7c2.2-1.2,3.9-2.7,4.9-4.5,1.2-2,1.8-5.4,1.8-10v-1.9Z"/>
    <path class="st3" d="M612.1,256.9v-1.3c-1.8,2.1-3.6,3.7-5.3,5-1.8,1.3-3.7,2.3-5.7,3-2,.7-4.3,1-6.7,1s-6.2-.7-8.9-2c-2.7-1.4-5.1-3.3-7.1-5.8-2-2.5-3.5-5.5-4.5-8.9-1-3.4-1.5-7.1-1.5-11.1,0-8.4,2-14.9,6.1-19.6,4.1-4.7,9.5-7,16.2-7s7.1.7,9.8,2c2.7,1.3,5.2,3.4,7.8,6.1v-19.8c0-2.8.5-4.8,1.6-6.2,1.1-1.4,2.7-2.1,4.7-2.1s3.6.6,4.7,1.9,1.6,3.2,1.6,5.7v59.2c0,2.6-.6,4.5-1.8,5.8-1.2,1.3-2.7,1.9-4.6,1.9s-3.4-.7-4.5-2c-1.2-1.3-1.8-3.2-1.8-5.7ZM585.7,237.2c0,3.6.6,6.7,1.7,9.3,1.1,2.6,2.7,4.5,4.6,5.8,2,1.3,4.1,1.9,6.4,1.9s4.5-.6,6.5-1.8c2-1.2,3.5-3.1,4.7-5.7,1.2-2.5,1.7-5.7,1.7-9.5s-.6-6.6-1.7-9.2c-1.2-2.6-2.7-4.5-4.7-5.9-2-1.4-4.2-2-6.5-2s-4.7.7-6.6,2.1c-1.9,1.4-3.4,3.4-4.5,6-1.1,2.6-1.6,5.6-1.6,9.1Z"/>
    <path class="st3" d="M683,238.3v17.9c0,2.8-.6,4.9-1.9,6.3-1.3,1.4-3,2.1-5.1,2.1s-3.7-.7-4.9-2.1c-1.3-1.4-1.9-3.5-1.9-6.3v-21.4c0-3.4-.1-6-.3-7.9-.2-1.9-.9-3.4-1.9-4.6-1-1.2-2.6-1.8-4.8-1.8-4.4,0-7.3,1.5-8.7,4.5-1.4,3-2.1,7.3-2.1,13v18.1c0,2.8-.6,4.9-1.9,6.3-1.3,1.4-2.9,2.1-5,2.1s-3.7-.7-5-2.1c-1.3-1.4-1.9-3.5-1.9-6.3v-38.4c0-2.5.6-4.4,1.7-5.8,1.2-1.3,2.7-2,4.6-2s3.4.6,4.6,1.8c1.2,1.2,1.8,2.9,1.8,5.1v1.3c2.3-2.8,4.8-4.8,7.5-6.1,2.7-1.3,5.6-2,8.9-2s6.3.7,8.7,2c2.4,1.3,4.4,3.4,6,6.1,2.3-2.8,4.7-4.8,7.3-6.1,2.6-1.3,5.5-2,8.6-2s6.8.7,9.5,2.2c2.7,1.4,4.6,3.5,6,6.2,1.1,2.4,1.7,6.2,1.7,11.5v26.2c0,2.8-.6,4.9-1.9,6.3-1.3,1.4-3,2.1-5.1,2.1s-3.7-.7-5-2.1c-1.3-1.4-1.9-3.5-1.9-6.3v-22.6c0-2.9-.1-5.2-.4-6.9-.2-1.7-.9-3.2-2-4.4-1.1-1.2-2.7-1.8-4.9-1.8s-3.5.5-5,1.6c-1.6,1-2.8,2.5-3.7,4.2-1,2.3-1.5,6.3-1.5,12Z"/>
    <path class="st3" d="M761.4,257c-3.2,2.5-6.4,4.4-9.4,5.7s-6.4,1.9-10.2,1.9-6.5-.7-9.1-2-4.6-3.2-6-5.5c-1.4-2.3-2.1-4.9-2.1-7.6s1.2-6.8,3.5-9.4c2.3-2.6,5.5-4.3,9.6-5.2.9-.2,3-.6,6.3-1.3,3.4-.7,6.3-1.3,8.7-1.9,2.4-.6,5-1.3,7.8-2.1-.2-3.5-.9-6.1-2.1-7.8-1.3-1.7-3.9-2.5-7.8-2.5s-6,.5-7.7,1.4c-1.7,1-3.2,2.4-4.4,4.3-1.2,1.9-2.1,3.2-2.6,3.8-.5.6-1.6.9-3.3.9s-2.8-.5-3.9-1.5c-1.1-1-1.6-2.2-1.6-3.7,0-2.4.8-4.7,2.5-6.9s4.3-4.1,7.8-5.5c3.5-1.4,8-2.2,13.2-2.2s10.5.7,13.9,2.1,5.8,3.6,7.2,6.6c1.4,3,2.1,7,2.1,12s0,5.8,0,8c0,2.2,0,4.6,0,7.3,0,2.5.4,5.2,1.3,7.9.8,2.7,1.3,4.5,1.3,5.3,0,1.4-.6,2.6-1.9,3.8-1.3,1.1-2.8,1.7-4.4,1.7s-2.7-.6-4.1-1.9-2.8-3.2-4.3-5.6ZM760.5,237.6c-2,.7-4.8,1.5-8.6,2.3-3.8.8-6.4,1.4-7.8,1.8s-2.8,1.1-4.1,2.2c-1.3,1.1-2,2.6-2,4.6s.8,3.8,2.3,5.2c1.5,1.4,3.6,2.1,6,2.1s5.1-.6,7.4-1.7c2.2-1.2,3.9-2.7,4.9-4.5,1.2-2,1.8-5.4,1.8-10v-1.9Z"/>
    <path class="st3" d="M798.4,217.5v1.6c2.5-3.1,5.1-5.4,7.9-6.9,2.7-1.5,5.8-2.2,9.2-2.2s7.9,1.1,11.4,3.2c3.5,2.1,6.2,5.2,8.2,9.3,2,4.1,3,9,3,14.6s-.6,7.9-1.7,11.4c-1.2,3.5-2.8,6.4-4.8,8.7-2,2.3-4.4,4.1-7.2,5.4-2.8,1.3-5.7,1.9-8.9,1.9s-7.1-.8-9.7-2.3-5.1-3.8-7.5-6.8v20.2c0,5.9-2.1,8.9-6.4,8.9s-4.2-.8-5-2.3c-.8-1.5-1.2-3.7-1.2-6.7v-57.9c0-2.6.6-4.5,1.7-5.7,1.1-1.3,2.6-1.9,4.6-1.9s3.5.6,4.6,1.9c1.2,1.3,1.8,3.2,1.8,5.6ZM824.7,237.1c0-3.5-.5-6.6-1.6-9.1-1.1-2.5-2.6-4.5-4.5-5.9-1.9-1.4-4-2-6.4-2-3.7,0-6.8,1.5-9.4,4.4-2.5,2.9-3.8,7.2-3.8,12.9s1.3,9.5,3.8,12.5c2.5,3,5.7,4.5,9.4,4.5s4.3-.6,6.2-1.9c1.9-1.3,3.4-3.2,4.6-5.8,1.1-2.6,1.7-5.7,1.7-9.4Z"/>
  </g>
  <g>
    <path class="st10" d="M405.9,298c3.7,0,6.9.8,9.6,2.3,2.7,1.5,4.7,3.6,6,6.4,1.4,2.8,2.1,6,2.1,9.8s-.4,5.3-1.1,7.5c-.7,2.3-1.9,4.2-3.4,5.9-1.5,1.7-3.3,2.9-5.5,3.8-2.2.9-4.7,1.3-7.5,1.3s-5.3-.5-7.5-1.4c-2.2-.9-4.1-2.2-5.5-3.8-1.5-1.6-2.6-3.6-3.4-5.9-.8-2.3-1.1-4.8-1.1-7.5s.4-5.3,1.2-7.6c.8-2.3,1.9-4.2,3.4-5.9,1.5-1.6,3.3-2.8,5.5-3.7,2.1-.9,4.6-1.3,7.3-1.3ZM416.2,316.4c0-2.6-.4-4.9-1.3-6.8-.8-1.9-2.1-3.4-3.6-4.4-1.6-1-3.4-1.5-5.4-1.5s-2.8.3-4,.8c-1.2.5-2.3,1.3-3.2,2.4-.9,1-1.6,2.4-2.1,4-.5,1.6-.8,3.4-.8,5.5s.3,3.9.8,5.5c.5,1.6,1.2,3,2.2,4.1.9,1.1,2,1.9,3.2,2.4,1.2.5,2.5.8,4,.8s3.6-.5,5.1-1.4c1.6-.9,2.8-2.4,3.7-4.3.9-1.9,1.4-4.3,1.4-7.2Z"/>
    <path class="st10" d="M435.5,311.7v.8c1.3-1.5,2.6-2.7,3.9-3.4,1.4-.7,2.9-1.1,4.6-1.1s3.9.5,5.7,1.6c1.7,1.1,3.1,2.6,4.1,4.6,1,2,1.5,4.4,1.5,7.2s-.3,3.9-.9,5.7c-.6,1.7-1.4,3.2-2.4,4.3-1,1.2-2.2,2.1-3.6,2.7-1.4.6-2.9.9-4.4.9s-3.5-.4-4.8-1.1c-1.3-.8-2.5-1.9-3.7-3.4v10c0,2.9-1.1,4.4-3.2,4.4s-2.1-.4-2.5-1.1c-.4-.8-.6-1.9-.6-3.3v-28.8c0-1.3.3-2.2.8-2.8.6-.6,1.3-.9,2.3-.9s1.7.3,2.3,1c.6.6.9,1.6.9,2.8ZM448.5,321.4c0-1.8-.3-3.3-.8-4.5-.5-1.3-1.3-2.2-2.2-2.9-1-.7-2-1-3.2-1-1.8,0-3.4.7-4.7,2.2-1.3,1.4-1.9,3.6-1.9,6.4s.6,4.7,1.9,6.2c1.3,1.5,2.8,2.2,4.7,2.2s2.1-.3,3.1-1c.9-.6,1.7-1.6,2.3-2.9.6-1.3.9-2.8.9-4.7Z"/>
    <path class="st10" d="M479.2,323.1h-13c0,1.5.3,2.8.9,4,.6,1.2,1.4,2,2.4,2.6,1,.6,2.1.9,3.3.9s1.5,0,2.2-.3c.7-.2,1.3-.5,1.9-.9.6-.4,1.2-.8,1.7-1.3.5-.5,1.2-1.1,2-1.9.3-.3.8-.4,1.5-.4s1.2.2,1.7.6c.4.4.6.9.6,1.6s-.2,1.3-.7,2.1c-.5.8-1.2,1.6-2.1,2.3-1,.7-2.1,1.4-3.6,1.8-1.4.5-3.1.7-5,.7-4.3,0-7.6-1.2-10-3.7-2.4-2.4-3.6-5.8-3.6-9.9s.3-3.8.9-5.5c.6-1.7,1.4-3.1,2.6-4.3,1.1-1.2,2.5-2.1,4.2-2.8,1.6-.6,3.5-1,5.5-1s4.8.5,6.7,1.6c1.9,1.1,3.3,2.5,4.2,4.3.9,1.7,1.4,3.5,1.4,5.3s-.5,2.8-1.4,3.3c-1,.5-2.3.7-4.1.7ZM466.1,319.3h12.1c-.2-2.3-.8-4-1.8-5.1-1.1-1.1-2.5-1.7-4.2-1.7s-3,.6-4.1,1.7c-1.1,1.1-1.7,2.8-1.9,5.1Z"/>
    <path class="st10" d="M496.3,311.6v.8c1.2-1.5,2.5-2.7,3.8-3.4,1.4-.7,3-1.1,4.8-1.1s3.3.4,4.7,1.1c1.4.8,2.4,1.8,3.1,3.2.4.8.7,1.7.9,2.6.1.9.2,2.1.2,3.6v12.4c0,1.3-.3,2.3-.9,3-.6.7-1.4,1-2.4,1s-1.8-.4-2.4-1c-.6-.7-.9-1.7-.9-3v-11.1c0-2.2-.3-3.9-.9-5-.6-1.2-1.8-1.7-3.6-1.7s-2.3.4-3.2,1.1c-1,.7-1.7,1.7-2.1,2.9-.3,1-.5,2.8-.5,5.6v8.3c0,1.4-.3,2.4-.9,3-.6.7-1.4,1-2.4,1s-1.8-.4-2.4-1c-.6-.7-.9-1.7-.9-3v-19.3c0-1.3.3-2.2.8-2.8.6-.6,1.3-.9,2.3-.9s1.1.1,1.6.4c.5.3.9.7,1.1,1.2.3.6.4,1.2.4,2Z"/>
    <path class="st10" d="M560.6,323.7c0,2.2-.6,4.1-1.7,5.8-1.1,1.7-2.7,3.1-4.9,4.1s-4.7,1.5-7.6,1.5-6.4-.7-8.7-2c-1.6-1-3-2.2-4-3.8-1-1.6-1.5-3.2-1.5-4.7s.3-1.6.9-2.3c.6-.6,1.4-.9,2.3-.9s1.4.2,1.9.7c.5.5,1,1.2,1.4,2.2.5,1.1.9,2.1,1.5,2.9.5.8,1.3,1.4,2.2,1.9,1,.5,2.2.7,3.8.7s3.9-.5,5.2-1.5c1.3-1,2-2.2,2-3.7s-.4-2.2-1.1-2.9c-.7-.7-1.7-1.3-2.8-1.7-1.1-.4-2.7-.8-4.6-1.2-2.6-.6-4.7-1.3-6.5-2.1-1.7-.8-3.1-1.9-4.1-3.3-1-1.4-1.5-3.1-1.5-5.2s.5-3.7,1.6-5.2c1.1-1.5,2.6-2.7,4.7-3.5,2-.8,4.4-1.2,7.2-1.2s4.1.3,5.7.8c1.6.5,2.9,1.3,4,2.2,1.1.9,1.8,1.9,2.3,2.8.5,1,.7,2,.7,2.9s-.3,1.6-.9,2.3c-.6.7-1.4,1-2.3,1s-1.5-.2-1.9-.6c-.4-.4-.9-1.1-1.4-2-.7-1.4-1.4-2.4-2.3-3.2-.9-.8-2.4-1.1-4.4-1.1s-3.4.4-4.5,1.2c-1.1.8-1.7,1.8-1.7,3s.2,1.3.6,1.9c.4.5.9,1,1.6,1.3.7.4,1.4.7,2.1.9.7.2,1.9.5,3.5.9,2,.5,3.8,1,5.5,1.6,1.6.6,3,1.3,4.2,2.1,1.1.8,2,1.8,2.7,3.1.6,1.2,1,2.8,1,4.6Z"/>
    <path class="st10" d="M591.3,321.5c0,2-.3,3.8-.9,5.5-.6,1.7-1.5,3.1-2.7,4.3-1.2,1.2-2.6,2.1-4.2,2.8-1.6.6-3.5,1-5.5,1s-3.8-.3-5.4-1-3-1.6-4.2-2.8c-1.2-1.2-2.1-2.6-2.7-4.3-.6-1.7-.9-3.5-.9-5.5s.3-3.9.9-5.5c.6-1.7,1.5-3.1,2.7-4.3,1.2-1.2,2.6-2.1,4.2-2.7,1.6-.6,3.5-1,5.4-1s3.8.3,5.5,1c1.6.7,3.1,1.6,4.2,2.8,1.2,1.2,2.1,2.6,2.7,4.3.6,1.7.9,3.5.9,5.5ZM584.6,321.5c0-2.7-.6-4.8-1.8-6.3-1.2-1.5-2.8-2.3-4.8-2.3s-2.5.3-3.4,1c-1,.7-1.8,1.7-2.3,3s-.8,2.9-.8,4.6.3,3.3.8,4.6c.5,1.3,1.3,2.3,2.3,3,1,.7,2.1,1,3.5,1,2,0,3.6-.8,4.8-2.3,1.2-1.5,1.8-3.6,1.8-6.3Z"/>
    <path class="st10" d="M613.8,331.3v-.9c-.8,1-1.6,1.9-2.5,2.5s-1.8,1.2-2.9,1.5c-1,.3-2.2.5-3.6.5s-3.1-.3-4.3-1c-1.3-.7-2.3-1.6-3-2.8-.8-1.4-1.2-3.5-1.2-6.1v-13.2c0-1.3.3-2.3.9-3,.6-.7,1.4-1,2.4-1s1.8.3,2.4,1c.6.7.9,1.7.9,3v10.7c0,1.5.1,2.8.4,3.9.3,1.1.7,1.9,1.4,2.5.7.6,1.6.9,2.7.9s2.2-.3,3.2-1c1-.7,1.7-1.5,2.2-2.6.4-.9.6-3,.6-6.2v-8.1c0-1.3.3-2.3.9-3,.6-.7,1.4-1,2.4-1s1.8.3,2.4,1c.6.7.9,1.7.9,3v19.3c0,1.3-.3,2.2-.9,2.9-.6.6-1.3,1-2.2,1s-1.7-.3-2.3-1c-.6-.7-.9-1.6-.9-2.8Z"/>
    <path class="st10" d="M633.3,325.4v5.6c0,1.4-.3,2.4-1,3-.6.7-1.4,1-2.4,1s-1.8-.3-2.4-1c-.6-.7-.9-1.7-.9-3v-18.6c0-3,1.1-4.5,3.2-4.5s1.9.4,2.4,1c.5.7.8,1.7.8,3.1.8-1.4,1.6-2.4,2.5-3.1.8-.7,2-1,3.4-1s2.8.4,4.1,1c1.3.7,2,1.6,2,2.8s-.3,1.5-.8,2c-.6.5-1.2.8-1.8.8s-.8-.2-1.8-.5c-.9-.3-1.8-.5-2.5-.5s-1.8.3-2.4.8c-.6.5-1.1,1.3-1.4,2.3-.3,1-.6,2.2-.7,3.6-.1,1.4-.2,3.1-.2,5.1Z"/>
    <path class="st10" d="M671.2,326.8c0,.8-.2,1.7-.7,2.7-.5.9-1.3,1.8-2.3,2.7-1,.9-2.3,1.5-3.8,2.1-1.5.5-3.3.8-5.2.8-4.1,0-7.3-1.2-9.6-3.6-2.3-2.4-3.5-5.6-3.5-9.7s.5-5.2,1.6-7.3c1.1-2.1,2.6-3.7,4.6-4.9,2-1.1,4.4-1.7,7.2-1.7s3.3.3,4.7.8c1.4.5,2.7,1.2,3.7,2,1,.8,1.8,1.6,2.3,2.6.5.9.8,1.7.8,2.5s-.3,1.5-.9,2c-.6.6-1.3.8-2.2.8s-1-.1-1.4-.4c-.4-.3-.8-.7-1.2-1.4-.8-1.2-1.7-2.2-2.6-2.8-.9-.6-2-.9-3.4-.9-2,0-3.6.8-4.8,2.3-1.2,1.5-1.8,3.6-1.8,6.3s.2,2.4.5,3.5c.3,1,.8,1.9,1.3,2.7.6.7,1.3,1.3,2.1,1.7.8.4,1.7.6,2.7.6s2.5-.3,3.4-.9c1-.6,1.8-1.6,2.5-2.8.4-.7.8-1.3,1.3-1.8.5-.4,1-.6,1.7-.6s1.5.3,2,.9c.5.6.8,1.3.8,2Z"/>
    <path class="st10" d="M695.6,323.1h-13c0,1.5.3,2.8.9,4,.6,1.2,1.4,2,2.4,2.6,1,.6,2.1.9,3.3.9s1.5,0,2.2-.3c.7-.2,1.3-.5,1.9-.9.6-.4,1.2-.8,1.7-1.3.5-.5,1.2-1.1,2-1.9.3-.3.8-.4,1.5-.4s1.2.2,1.7.6c.4.4.6.9.6,1.6s-.2,1.3-.7,2.1c-.5.8-1.2,1.6-2.1,2.3-1,.7-2.1,1.4-3.6,1.8-1.4.5-3.1.7-5,.7-4.3,0-7.6-1.2-10-3.7-2.4-2.4-3.6-5.8-3.6-9.9s.3-3.8.9-5.5c.6-1.7,1.4-3.1,2.6-4.3,1.1-1.2,2.5-2.1,4.2-2.8,1.6-.6,3.5-1,5.5-1s4.8.5,6.7,1.6c1.9,1.1,3.3,2.5,4.2,4.3.9,1.7,1.4,3.5,1.4,5.3s-.5,2.8-1.4,3.3c-1,.5-2.3.7-4.1.7ZM682.6,319.3h12.1c-.2-2.3-.8-4-1.8-5.1-1.1-1.1-2.5-1.7-4.2-1.7s-3,.6-4.1,1.7c-1.1,1.1-1.7,2.8-1.9,5.1Z"/>
    <path class="st10" d="M733.6,320.5h-6.6v10.1c0,1.4-.3,2.5-1,3.3s-1.5,1.1-2.6,1.1-2-.4-2.6-1.1c-.7-.7-1-1.8-1-3.3v-27.6c0-1.6.4-2.7,1.1-3.4s1.9-1,3.5-1h9.3c2.8,0,4.9.2,6.3.6,1.5.4,2.7,1.1,3.8,2,1.1.9,1.9,2.1,2.4,3.5.6,1.4.8,2.9.8,4.6,0,3.6-1.1,6.4-3.4,8.3-2.2,1.9-5.6,2.8-10,2.8ZM731.8,304.1h-4.9v10.9h4.9c1.7,0,3.1-.2,4.3-.5,1.1-.4,2-.9,2.6-1.8.6-.8.9-1.9.9-3.2s-.5-2.9-1.4-3.9c-1-1.1-3.2-1.6-6.4-1.6Z"/>
    <path class="st10" d="M752.6,331v-28.9c0-1.3.3-2.3.9-3,.6-.7,1.4-1,2.4-1s1.8.3,2.4,1c.6.7.9,1.7.9,3v28.9c0,1.4-.3,2.4-.9,3-.6.7-1.4,1-2.4,1s-1.8-.4-2.4-1c-.6-.7-.9-1.7-.9-3Z"/>
    <path class="st10" d="M783,331.3c-1.6,1.3-3.2,2.2-4.7,2.8-1.5.6-3.2.9-5.1.9s-3.2-.3-4.5-1c-1.3-.7-2.3-1.6-3-2.7-.7-1.2-1-2.4-1-3.8s.6-3.4,1.7-4.7c1.2-1.3,2.7-2.1,4.8-2.6.4,0,1.5-.3,3.1-.7,1.7-.3,3.1-.7,4.3-.9,1.2-.3,2.5-.6,3.9-1,0-1.8-.4-3-1.1-3.9-.6-.8-1.9-1.2-3.9-1.2s-3,.2-3.8.7c-.9.5-1.6,1.2-2.2,2.1-.6.9-1,1.6-1.3,1.9-.3.3-.8.5-1.6.5s-1.4-.2-1.9-.7c-.5-.5-.8-1.1-.8-1.8,0-1.2.4-2.3,1.2-3.4.8-1.1,2.1-2,3.9-2.7,1.8-.7,3.9-1.1,6.6-1.1s5.2.3,6.9,1c1.7.7,2.9,1.8,3.6,3.3.7,1.5,1,3.5,1,6s0,2.9,0,4c0,1.1,0,2.3,0,3.6,0,1.3.2,2.6.6,3.9.4,1.4.6,2.2.6,2.6,0,.7-.3,1.3-1,1.9-.6.6-1.4.8-2.2.8s-1.4-.3-2-1c-.7-.6-1.4-1.6-2.1-2.8ZM782.5,321.6c-1,.4-2.4.7-4.3,1.1-1.9.4-3.2.7-3.9.9-.7.2-1.4.6-2.1,1.1-.7.5-1,1.3-1,2.3s.4,1.9,1.1,2.6c.8.7,1.8,1.1,3,1.1s2.5-.3,3.7-.9c1.1-.6,1.9-1.3,2.5-2.2.6-1,.9-2.7.9-5v-1Z"/>
    <path class="st10" d="M801.9,311.6v.8c1.2-1.5,2.5-2.7,3.8-3.4,1.4-.7,3-1.1,4.8-1.1s3.3.4,4.7,1.1c1.4.8,2.4,1.8,3.1,3.2.4.8.7,1.7.9,2.6.1.9.2,2.1.2,3.6v12.4c0,1.3-.3,2.3-.9,3-.6.7-1.4,1-2.4,1s-1.8-.4-2.4-1c-.6-.7-.9-1.7-.9-3v-11.1c0-2.2-.3-3.9-.9-5-.6-1.2-1.8-1.7-3.6-1.7s-2.3.4-3.2,1.1c-1,.7-1.7,1.7-2.1,2.9-.3,1-.5,2.8-.5,5.6v8.3c0,1.4-.3,2.4-.9,3-.6.7-1.4,1-2.4,1s-1.8-.4-2.4-1c-.6-.7-.9-1.7-.9-3v-19.3c0-1.3.3-2.2.8-2.8.6-.6,1.3-.9,2.3-.9s1.1.1,1.6.4c.5.3.9.7,1.1,1.2.3.6.4,1.2.4,2Z"/>
    <path class="st10" d="M832.1,311.6v.8c1.2-1.5,2.5-2.7,3.8-3.4,1.4-.7,3-1.1,4.8-1.1s3.3.4,4.7,1.1c1.4.8,2.4,1.8,3.1,3.2.4.8.7,1.7.9,2.6.1.9.2,2.1.2,3.6v12.4c0,1.3-.3,2.3-.9,3-.6.7-1.4,1-2.4,1s-1.8-.4-2.4-1c-.6-.7-.9-1.7-.9-3v-11.1c0-2.2-.3-3.9-.9-5-.6-1.2-1.8-1.7-3.6-1.7s-2.3.4-3.2,1.1c-1,.7-1.7,1.7-2.1,2.9-.3,1-.5,2.8-.5,5.6v8.3c0,1.4-.3,2.4-.9,3-.6.7-1.4,1-2.4,1s-1.8-.4-2.4-1c-.6-.7-.9-1.7-.9-3v-19.3c0-1.3.3-2.2.8-2.8.6-.6,1.3-.9,2.3-.9s1.1.1,1.6.4c.5.3.9.7,1.1,1.2.3.6.4,1.2.4,2Z"/>
    <path class="st10" d="M859.6,304.8c-.9,0-1.7-.3-2.4-.9-.7-.6-1-1.4-1-2.4s.3-1.7,1-2.3c.7-.6,1.5-.9,2.4-.9s1.6.3,2.3.8c.7.6,1,1.4,1,2.4s-.3,1.8-1,2.4c-.7.6-1.4.9-2.3.9ZM862.9,311.7v19.3c0,1.3-.3,2.3-1,3s-1.4,1-2.4,1-1.8-.4-2.4-1c-.6-.7-.9-1.7-.9-3v-19.1c0-1.3.3-2.3.9-3,.6-.7,1.4-1,2.4-1s1.8.3,2.4,1c.6.7,1,1.6,1,2.8Z"/>
    <path class="st10" d="M875.9,311.6v.8c1.2-1.5,2.5-2.7,3.8-3.4,1.4-.7,3-1.1,4.8-1.1s3.3.4,4.7,1.1c1.4.8,2.4,1.8,3.1,3.2.4.8.7,1.7.9,2.6.1.9.2,2.1.2,3.6v12.4c0,1.3-.3,2.3-.9,3-.6.7-1.4,1-2.4,1s-1.8-.4-2.4-1c-.6-.7-.9-1.7-.9-3v-11.1c0-2.2-.3-3.9-.9-5-.6-1.2-1.8-1.7-3.6-1.7s-2.3.4-3.2,1.1c-1,.7-1.7,1.7-2.1,2.9-.3,1-.5,2.8-.5,5.6v8.3c0,1.4-.3,2.4-.9,3-.6.7-1.4,1-2.4,1s-1.8-.4-2.4-1c-.6-.7-.9-1.7-.9-3v-19.3c0-1.3.3-2.2.8-2.8.6-.6,1.3-.9,2.3-.9s1.1.1,1.6.4c.5.3.9.7,1.1,1.2.3.6.4,1.2.4,2Z"/>
    <path class="st10" d="M924.5,312.8v19.4c0,2.2-.2,4.1-.7,5.7-.5,1.6-1.2,2.9-2.3,4-1,1-2.4,1.8-4.1,2.3-1.7.5-3.8.8-6.3.8s-4.3-.3-6.2-1c-1.8-.6-3.2-1.5-4.2-2.5-1-1-1.5-2.1-1.5-3.1s.3-1.5.8-2c.6-.5,1.2-.8,2-.8s1.8.4,2.6,1.3c.4.4.7.9,1.1,1.3.4.4.8.8,1.3,1.1.5.3,1,.6,1.7.7.7.2,1.4.2,2.2.2,1.7,0,3.1-.2,4-.7,1-.5,1.6-1.2,2-2,.4-.9.6-1.8.7-2.8,0-1,.1-2.6.1-4.7-1,1.4-2.2,2.5-3.6,3.3-1.3.7-2.9,1.1-4.8,1.1s-4.2-.6-5.8-1.7c-1.7-1.1-3-2.7-3.8-4.8-.9-2.1-1.3-4.4-1.3-7.1s.3-3.8.8-5.4c.5-1.6,1.3-3,2.3-4.1,1-1.1,2.2-1.9,3.5-2.5,1.3-.6,2.8-.8,4.3-.8s3.5.4,4.9,1.1c1.4.7,2.7,1.9,3.9,3.4v-.9c0-1.2.3-2.1.9-2.7.6-.6,1.3-1,2.2-1,1.3,0,2.1.4,2.6,1.3.4.8.6,2,.6,3.6ZM905.2,321.3c0,2.7.6,4.7,1.8,6.1,1.2,1.4,2.7,2.1,4.6,2.1s2.2-.3,3.1-.9c1-.6,1.8-1.5,2.4-2.7.6-1.2.9-2.6.9-4.4,0-2.7-.6-4.8-1.8-6.3-1.2-1.5-2.8-2.3-4.7-2.3s-3.4.7-4.6,2.2c-1.1,1.4-1.7,3.5-1.7,6.2Z"/>
  </g>
  <g>
    <path class="st14" d="M192.7-143.2c-.2-.1-2.1-.4-2,.5.6,11.2-2.5,23.1-6.5,33.5-1.9,4.9-8.4,18.8-11.6,22.4s-11.9,4.8-12.8-1.9,4.8-10.9,8.1-16.8c6.6-11.6,8.7-28.5,9.8-41.7l-11,11.5c-37.1,30.9-98.9,4.4-110.3-39.7-3.8-14.8,19.6-21.5,30.8-21.8s6.5,1.1,10,1.1,8.1-.9,8.5-1.1,0-2.6-.2-3.3c-1.7-5.1-19.8-8.4-25.3-10.7-42.1-17.1-44.7-64.1-38.2-103.3s1.4-16.6,10.4-18.6c19.2-4.1,46.6,4.5,61.3,17.3,4.9,4.3,15.8,20.2,20.6,20.5,7.4.5,1.7-14.1-.2-17.9-8.4-16.9-15.4-23-13.3-44.5,2.6-25.8,32.2-60.3,52.4-75.6,12.6-9.5,14.6-7.2,26,2,23.5,19,53.6,55.4,50.4,87.4-1.7,17.1-10.8,23.2-15.4,36.6s-4,13.7,2.5,11.6c3.8-1.2,17.2-18.4,22.5-22.6,13.9-11.1,40.5-17.7,57.9-15,10.7,1.6,11.2,18.8,12.4,27.6,6.7,49.4-3,93.6-33.5,133.3s-68.2,68.6-98.4,36.6-4.6-7.3-5-7.5Z"/>
    <path class="st6" d="M179.7-198.2c-1.1-.1-1.8-1.3-2.4-2.1-19.7-25.7-51.7-54.8-78.7-73.3-7-4.8-14.1-6.1-11,5,10.2,7.4,20.8,14.4,30.5,22.5,18.6,15.3,51.1,43.5,58.5,66.5s.3,1.6-.5,1.5c-12.7-7-26.3-5.2-39.7-1.7-3.2.8-12.1,3.1-13.3,5.7s-.2,8,3.2,8.9,12.7-4.9,16.1-5.6c7.8-1.6,19.4-2.7,26.6.8,3,1.5,4.5,4.1,7.6,4.9-15.8,24.1-38.2,37.5-67.5,28-19.2-6.2-32.9-24.1-41.4-41.6.2-2.3,12.1-5.1,14.5-5.4,10.6-1.1,20.7,3.2,30.3-3.7s7.8-14.1,1.6-21.5c-8.1-9.6-19.1-9.4-29.9-14.1-14.6-6.4-25.2-17.6-30.1-32.9-6.5-20.1-1.3-41.7.6-62.3.3-1.3,1.2-1.5,2.3-1.7,8.8-1.6,23.2,1.2,31.7,4.3,9.2,3.3,16.7,8.6,23.3,15.7s8.1,12.2,13.9,15.1c12.5,6,24.6-2.8,23.4-16.4s-16.7-30.4-17-50.1c-.3-21.3,24.8-50.4,40.1-64s11-10,13.3-9.4,6.2,5,7.2,5.9c15.5,13.7,42.5,43.5,44.5,64.5,2.2,22.9-16.3,36.1-16.9,55.1s4.6,13.5,9.4,15.4c14.4,5.7,23.8-12.4,32.6-20.6,13.6-12.7,33.2-16.1,51.1-16,3.9,8.1,3.4,17.3,4,26,.7,10.3,2.3,26.9-1.3,36.7-1.6,4.5-8.8,10.5-12.8,13.2-21.3,14.6-51.3,8.6-74.9,17.6,14.2-16.1,31.5-28.5,49.5-39.9,4.8-4.2,1.8-11.3-4.6-9.6-10.9,7.9-23.4,14.8-33.5,23.5-18.8,16.4-34.2,38.1-50.5,57v-79.5c0-9.3,10.9-24.5,16.6-32.4,3.9-5.3,8.1-10.5,12.9-15.1,2.5-5.4-2.1-10.2-7.5-8.5-7.6,7.9-13,17.7-19.7,26.3-.6.8,0,1.8-2.3,1.3v-74.5c0-.4-3.3-3.5-4.5-3.5s-5.5,4.2-5.5,4.5v55.5c-5.4-3.7-15.4-21.4-20-23.5-3.4-1.6-7.9,0-8.1,4-.2,4.2,8.1,11.3,11.1,15s17,21.5,17,26v102.5Z"/>
    <path class="st9" d="M290.7-224.2c4.5-1.4,2.2,3.6-1.9,3.7-9.4,25.7-27.6,53.7-51,70.7-.8,2.7-2.7,7.1-4.1,2.7,1.6-5.7,2.2-17.5,2-23.5-.4-11.7-5-27.2-4.5-38s8.6-8.8,15.3-10.2c14.5-2.9,29.7-2.6,44.2-5.3Z"/>
    <path class="st7" d="M290.7-224.2c-.1-1.2,7.7-3,9.4-4.1l14.6-7.8c-9.4,33.3-30.3,65.6-58.7,85.8-6.1,4.3-16.6,11-23.9,12.1-1.4.2-3,.6-2.4-1.4s2.2-4.3,3-7,.9-.5,1-.5c1.5,2.3,1.2-2.5,2.3-3.7s4.1-2.2,5.7-3.8c20.1-18.9,36.5-41.1,45.5-67.5l4.5-1c-.1-.5-1-.8-1-1Z"/>
    <path class="st15" d="M219.7-216.2c-2.7,20.3,11.7,57.4-2.1,74.4-.7.8-.7,1.6-2.2,1.5-8.5-.7-17.9-18.8-24.2-23.9-.9-1.9-.9-9.2-.6-11.5.5-4.1,19.6-31,23.5-35.5s3.5-3.7,5.5-5Z"/>
  </g>
  <text class="st4" transform="translate(377.8 -315.1)"><tspan x="0" y="0">Naked </tspan><tspan x="0" y="100.7">Roadmap</tspan></text>
  <text class="st11" transform="translate(386.3 -143.3)"><tspan x="0" y="0">Open Source Planning</tspan></text>
</svg>