<svg width="20" height="20" viewBox="0 0 20 20" fill="none" xmlns="http://www.w3.org/2000/svg">
    <g clip-path="url(#clip0_2314_37)">
        <path d="M3.67236 16.1288C5.75633 18.3664 9.09472 19.0199 11.9678 17.9209C12.4331 17.7426 12.8782 17.4159 13.2829 17.2674C14.1529 16.9308 14.8711 18.0397 13.9809 18.6436C11.9678 20.0397 8.81146 20.3268 6.4847 19.6436C4.5626 19.0793 3.45992 18.1585 2.10433 16.7921C2.06386 16.7426 2.04363 16.703 1.9627 16.7228C1.85142 17.1684 1.78061 17.703 1.62886 18.1288C1.2849 19.0694 0.0102463 18.812 0.0709443 17.9011C0.4149 16.9011 0.556529 15.6832 0.940949 14.7129C1.26467 13.8912 1.98293 14.307 2.56968 14.4357C3.15643 14.5644 3.79376 14.6337 4.39062 14.7822C4.98748 14.9308 5.94854 15.1684 5.4933 16.0199C5.10888 16.7525 4.24899 16.208 3.67236 16.109V16.1288Z" fill="#9CA3AF" />
        <path d="M17.5418 14.3663L19.2312 13.9703C19.99 14.0297 20.3036 14.9505 19.646 15.3861L16.2874 16.2772C15.8423 16.3168 15.5792 16.0891 15.387 15.7228L14.517 12.4653C14.598 11.8614 15.296 11.5248 15.7917 11.9505C16.0547 12.1683 16.1559 12.8614 16.2672 13.2079C16.2874 13.2772 16.2368 13.2871 16.3582 13.2772C16.4189 12.8317 16.5808 12.396 16.6415 11.9505C16.9854 9.24753 15.6501 6.53466 13.4143 4.9703C13.1412 4.78218 12.4128 4.43565 12.2914 4.21782C12.0183 3.75248 12.3724 3.08911 12.9288 3.08911C13.2221 3.08911 14.0719 3.64357 14.3349 3.83169C17.7138 6.15842 19.1705 10.604 17.5418 14.3861V14.3663Z" fill="#9CA3AF" />
        <path d="M9.41842 1.93076C9.68144 2.21788 10.167 2.48521 10.167 2.94066C10.167 3.3961 9.67132 3.74264 9.37795 4.02977C8.77097 4.62383 8.15387 5.20798 7.57724 5.83175C7.15235 6.16838 6.43409 5.80204 6.38351 5.29709C6.32282 4.71293 7.04108 4.30699 7.37491 3.91095C7.01073 3.93076 6.58584 4.09907 6.24188 4.23769C3.75327 5.24759 1.92221 7.58422 1.6086 10.2179C1.55802 10.6733 1.6086 11.1684 1.55802 11.604C1.45686 12.5446 0.161966 12.4951 0.050686 11.6931C-0.0605938 10.8912 0.131617 9.61392 0.34406 8.84165C1.2343 5.50501 4.25908 2.79214 7.75934 2.31689C7.44573 1.84165 6.46444 1.31689 6.47456 0.722835C6.48468 0.158479 7.13212 -0.178155 7.62782 0.108974C7.90096 0.26739 8.76085 1.18818 9.03399 1.46541C9.17562 1.60402 9.29702 1.79214 9.42853 1.94066L9.41842 1.93076Z" fill="#9CA3AF" />
    </g>
    <defs>
        <clipPath id="clip0_2314_37">
            <rect width="20" height="20" fill="white" />
        </clipPath>
    </defs>
</svg>