<?xml version="1.0" encoding="UTF-8"?>
<svg id="Layer_1" xmlns="http://www.w3.org/2000/svg" xmlns:xlink="http://www.w3.org/1999/xlink" version="1.1" viewBox="0 0 20 20">
  <!-- Generator: Adobe Illustrator 29.2.1, SVG Export Plug-In . SVG Version: 2.1.0 Build 116)  -->
  <defs>
    <style>
      .st0 {
        fill: none;
      }

      .st1 {
        fill: #9ca3af;
      }

      .st2 {
        clip-path: url(#clippath);
      }
    </style>
    <clipPath id="clippath">
      <rect class="st0" x="0" y="0" width="19.9" height="19.9"/>
    </clipPath>
  </defs>
  <g class="st2">
    <g>
      <path class="st1" d="M4.4,17.4s0,0,0,0c.2-.2.2-.3,0-.7s-.4-.4-.6-.6h0c.6,0,1.4.6,1.8-.1.5-.8-.5-1.1-1.1-1.2-.6-.1-1.2-.2-1.8-.3-.6-.1-1.3-.5-1.6.3-.4.9-.5,2.1-.8,3.1s0,0,0,.1c0,.9,1.2,1.1,1.5.2.2-.4.2-1,.3-1.4,0,0,.1,0,.1,0,.2.2.4.4.7.6.4.4,1.2.4,1.6,0s0,0,0,0Z"/>
      <path class="st1" d="M8.8,18.4c-.8,0-1.5-.2-2.2-.4s-.3,0-.4.1,0,0,0,0c0,.1-.2.2-.3.3s0,0,0,0c0,0-.1.2-.2.3,0,0,0,0,0,0-.2.2,0,.5.2.6s.5.2.7.2c.7.2,1.5.3,2.4.3s.4-.2.4-.4,0-.6,0-.8-.2-.3-.4-.3Z"/>
      <path class="st1" d="M13.3,17.2c-.4.1-.8.5-1.3.6-.1,0-.3.1-.4.2-.3.1-.6.4-.5.8s0,0,0,0c0,.5.5.8,1,.7.7-.2,1.4-.5,2-.9.9-.6.2-1.7-.7-1.4Z"/>
      <path class="st1" d="M14.8,5.4c.4-.3.4-.8,0-1.1s-.4-.3-.5-.4c-.3-.2-1.1-.7-1.4-.7-.6,0-.9.7-.6,1.1.1.2.8.6,1.1.7.2.1.3.3.5.4.3.2.6.2.9,0s0,0,0,0Z"/>
      <path class="st1" d="M17,6.8c-.1-.3-.5-.4-.8-.2s-.3.2-.5.3c-.2.1-.2.4-.1.6.4.6.6,1.3.8,2s.2.3.4.3,0,0,0,0c0,0,.1,0,.2,0,.2,0,.4,0,.5,0s.4-.3.3-.5c-.2-.7-.6-1.8-.9-2.4Z"/>
      <path class="st1" d="M19.2,13.9l-1.7.4c.3-.6.4-1.2.5-1.8s-.2-.6-.5-.6-.2,0-.4,0c-.3,0-.6.2-.6.5s-.1.7-.2.9c-.1,0,0,0,0,0-.1-.3-.2-1-.5-1.2-.5-.4-1.2,0-1.3.5l.9,3.2c.2.4.5.6.9.6l3.3-.9c.7-.4.3-1.3-.4-1.4Z"/>
      <path class="st1" d="M9.4,2c.3.3.7.6.7,1s-.5.8-.8,1.1c-.6.6-1.2,1.2-1.8,1.8-.4.3-1.1,0-1.2-.5,0-.6.7-1,1-1.4-.4,0-.8.2-1.1.3-2.5,1-4.3,3.3-4.6,5.9,0,.5,0,.9,0,1.4-.1.9-1.4.9-1.5,0-.1-.8,0-2.1.3-2.8.9-3.3,3.9-6,7.4-6.5-.3-.5-1.3-1-1.3-1.6,0-.6.7-.9,1.1-.6.3.2,1.1,1.1,1.4,1.3.1.1.3.3.4.5h0Z"/>
    </g>
  </g>
</svg>