<?xml version="1.0" encoding="UTF-8"?><svg id="Layer_1" xmlns="http://www.w3.org/2000/svg" viewBox="0 0 20 20"><defs><style>.cls-1{fill:#9ca3af;}</style></defs><path class="cls-1" d="M8.28,19.19c-.44-.11-.85-.35-1.06-.76-.38-.73-.04-1.98-1.06-2.28-.87-.25-1.61.76-2.66.36-.42-.16-.6-.44-.82-.8-.43-.69-1.18-1.87-1.48-2.58-.15-.36-.16-.73-.02-1.09.28-.75,1.32-1.02,1.54-1.73.37-1.22-1.3-1.47-1.58-2.47-.13-.46-.05-.76.16-1.17.37-.75.93-1.68,1.38-2.39.22-.36.39-.62.8-.79,1.06-.43,1.79.58,2.66.35.93-.24.78-1.25.98-1.97.17-.62.69-1.03,1.34-1.07.87-.06,2.31-.07,3.17,0,.5.04.97.33,1.19.78.35.72.05,1.91,1,2.24s1.83-.95,2.98-.21c.26.16.41.44.57.69.44.72,1.01,1.65,1.38,2.39.25.5.3.97,0,1.47-.45.74-1.74,1.03-1.44,2.12.18.63.99.93,1.37,1.44.31.42.36.93.16,1.41-.41.99-1.27,2.09-1.79,3.05-.99,1.04-1.92-.05-2.83-.08-1.39-.05-.99,1.68-1.48,2.44-.2.31-.62.6-.99.65-1.05.13-2.38-.1-3.46,0ZM11.51,2.25h-3.02c-.1.44-.12.92-.25,1.34-.37,1.17-1.61,1.9-2.82,1.7-.49-.08-.93-.36-1.42-.46l-1.48,2.57.03.07c.55.44,1.17.86,1.45,1.54.3.72.26,1.52-.11,2.2-.32.59-.89.93-1.37,1.36l1.48,2.6c.6-.14,1.14-.49,1.78-.5,1.13-.03,2.19.75,2.49,1.82.12.41.12.86.25,1.27h3c.13-.64.14-1.27.48-1.84.45-.77,1.38-1.28,2.28-1.24.62.02,1.15.36,1.74.5l1.48-2.57-.03-.07c-1.03-.72-1.84-1.58-1.62-2.94.17-1.05.88-1.54,1.65-2.16l-1.48-2.6c-.6.14-1.15.49-1.78.5-.91.02-1.84-.51-2.27-1.29-.31-.56-.33-1.18-.45-1.79Z"/><path class="cls-1" d="M9.82,6.46c2.57-.15,4.43,2.45,3.49,4.84-1,2.55-4.46,3.04-6.13.85s-.2-5.53,2.64-5.69ZM9.89,7.9c-2.71.13-2.58,4.25.13,4.23s2.74-4.37-.13-4.23Z"/></svg>