<?xml version="1.0" encoding="UTF-8"?><svg id="Layer_1" xmlns="http://www.w3.org/2000/svg" viewBox="0 0 20 20"><defs><style>.cls-1{fill:#9ca3af;}</style></defs><path class="cls-1" d="M2.03,15.46c-1.14-.14-1.63-1.17-1.57-2.21.11-2.01,1.47-4,3.31-4.79.05-.07-.35-.4-.41-.47-1.39-1.66-1.19-4.07.5-5.43,2.1-1.69,5.27-.66,5.99,1.91h.32c.64-2.47,3.68-3.55,5.77-2.06,1.85,1.32,2.15,3.84.7,5.58-.06.08-.46.41-.41.47,1.49.66,2.63,2.04,3.08,3.6.3,1.04.46,2.42-.58,3.09-.15.1-.6.31-.77.31h-2.3c.11.74.17,1.45-.32,2.06-.34.42-.79.65-1.33.69-2.62.18-5.44-.14-8.08,0-.64-.05-1.31-.51-1.54-1.12-.21-.55-.12-1.07-.07-1.63-.73-.06-1.59.08-2.3,0ZM8.5,4.8c-.47-1.85-2.9-2.33-4.12-.88-1.34,1.59-.16,4,1.89,3.97.07-1.34.98-2.61,2.23-3.1ZM13.79,7.9c1.87-.01,3.03-2.03,2.05-3.66-1.05-1.76-3.68-1.39-4.33.51,1.25.6,2.15,1.76,2.27,3.16ZM9.74,5.85c-3.05.3-2.7,5.03.46,4.8,3.14-.23,2.81-5.12-.46-4.8ZM6.39,9.28c-1.93-.09-3.73,1.16-4.32,2.99-.11.34-.3,1.19-.2,1.51.04.12.14.21.24.28l2.65.03c.55-1.29,1.58-2.28,2.82-2.91l-.54-.58c-.28-.4-.55-.82-.65-1.31ZM15.25,14.08c.79-.04,1.69.08,2.47,0,.18-.02.34-.1.41-.28.14-.36-.12-1.35-.26-1.72-.63-1.72-2.41-2.9-4.25-2.81-.14.55-.46,1.12-.84,1.54-.1.11-.23.19-.32.28-.04.04-.06.04-.05.1,1.27.53,2.29,1.62,2.84,2.87ZM9.61,12.04c-2.15.19-3.99,2.07-3.99,4.26,0,.23.07.39.27.5h8.23c.24-.14.28-.32.27-.59-.09-2.48-2.33-4.4-4.78-4.18Z"/></svg>