<?xml version="1.0" encoding="UTF-8"?>
<svg id="Layer_1" xmlns="http://www.w3.org/2000/svg" version="1.1" viewBox="0 0 292.3 355.7">
  <!-- Generator: Adobe Illustrator 29.2.1, SVG Export Plug-In . SVG Version: 2.1.0 Build 116)  -->
  <defs>
    <style>
      .st0 {
        fill: #6d964f;
      }

      .st1 {
        fill: #d5d4c6;
      }

      .st2 {
        fill: #f6f1e8;
      }

      .st3 {
        fill: #2c4639;
      }

      .st4 {
        fill: #6c954e;
      }
    </style>
  </defs>
  <path class="st3" d="M153.4,296.1c-.2-.1-2.1-.4-2,.5.6,11.2-2.5,23.1-6.5,33.5-1.9,4.9-8.4,18.8-11.6,22.4s-11.9,4.8-12.8-1.9,4.8-10.9,8.1-16.8c6.6-11.6,8.7-28.5,9.8-41.7l-11,11.5c-37.1,30.9-98.9,4.4-110.3-39.7-3.8-14.8,19.6-21.5,30.8-21.8s6.5,1.1,10,1.1,8.1-.9,8.5-1.1,0-2.6-.2-3.3c-1.7-5.1-19.8-8.4-25.3-10.7C-1.2,211-3.8,164,2.7,124.9s1.4-16.6,10.4-18.6c19.2-4.1,46.6,4.5,61.3,17.3,4.9,4.3,15.8,20.2,20.6,20.5,7.4.5,1.7-14.1-.2-17.9-8.4-16.9-15.4-23-13.3-44.5,2.6-25.8,32.2-60.3,52.4-75.6,12.6-9.5,14.6-7.2,26,2,23.5,19,53.6,55.4,50.4,87.4-1.7,17.1-10.8,23.2-15.4,36.6s-4,13.7,2.5,11.6c3.8-1.2,17.2-18.4,22.5-22.6,13.9-11.1,40.5-17.7,57.9-15,10.7,1.6,11.2,18.8,12.4,27.6,6.7,49.4-3,93.6-33.5,133.3s-68.2,68.6-98.4,36.6-4.6-7.3-5-7.5Z"/>
  <path class="st0" d="M140.4,241.1c-1.1-.1-1.8-1.3-2.4-2.1-19.7-25.7-51.7-54.8-78.7-73.3-7-4.8-14.1-6.1-11,5,10.2,7.4,20.8,14.4,30.5,22.5,18.6,15.3,51.1,43.5,58.5,66.5s.3,1.6-.5,1.5c-12.7-7-26.3-5.2-39.7-1.7-3.2.8-12.1,3.1-13.3,5.7s-.2,8,3.2,8.9,12.7-4.9,16.1-5.6c7.8-1.6,19.4-2.7,26.6.8,3,1.5,4.5,4.1,7.6,4.9-15.8,24.1-38.2,37.5-67.5,28-19.2-6.2-32.9-24.1-41.4-41.6.2-2.3,12.1-5.1,14.5-5.4,10.6-1.1,20.7,3.2,30.3-3.7s7.8-14.1,1.6-21.5c-8.1-9.6-19.1-9.4-29.9-14.1-14.6-6.4-25.2-17.6-30.1-32.9-6.5-20.1-1.3-41.7.6-62.3.3-1.3,1.2-1.5,2.3-1.7,8.8-1.6,23.2,1.2,31.7,4.3,9.2,3.3,16.7,8.6,23.3,15.7s8.1,12.2,13.9,15.1c12.5,6,24.6-2.8,23.4-16.4s-16.7-30.4-17-50.1c-.3-21.3,24.8-50.4,40.1-64s11-10,13.3-9.4,6.2,5,7.2,5.9c15.5,13.7,42.5,43.5,44.5,64.5,2.2,22.9-16.3,36.1-16.9,55.1-.2,5.1,4.6,13.5,9.4,15.4,14.4,5.7,23.8-12.4,32.6-20.6,13.6-12.7,33.2-16.1,51.1-16,3.9,8.1,3.4,17.3,4,26,.7,10.3,2.3,26.9-1.3,36.7-1.6,4.5-8.8,10.5-12.8,13.2-21.3,14.6-51.3,8.6-74.9,17.6,14.2-16.1,31.5-28.5,49.5-39.9,4.8-4.2,1.8-11.3-4.6-9.6-10.9,7.9-23.4,14.8-33.5,23.5-18.8,16.4-34.2,38.1-50.5,57v-79.5c0-9.3,10.9-24.5,16.6-32.4,3.9-5.3,8.1-10.5,12.9-15.1,2.5-5.4-2.1-10.2-7.5-8.5-7.6,7.9-13,17.7-19.7,26.3-.6.8,0,1.8-2.3,1.3V60.6c0-.4-3.3-3.5-4.5-3.5s-5.5,4.2-5.5,4.5v55.5c-5.4-3.7-15.4-21.4-20-23.5-3.4-1.6-7.9,0-8.1,4-.2,4.2,8.1,11.3,11.1,15s17,21.5,17,26v102.5Z"/>
  <path class="st2" d="M251.4,215.1c4.5-1.4,2.2,3.6-1.9,3.7-9.4,25.7-27.6,53.7-51,70.7-.8,2.7-2.7,7.1-4.1,2.7,1.6-5.7,2.2-17.5,2-23.5-.4-11.7-5-27.2-4.5-38,.3-8.3,8.6-8.8,15.3-10.2,14.5-2.9,29.7-2.6,44.2-5.3Z"/>
  <path class="st1" d="M251.4,215.1c-.1-1.2,7.7-3,9.4-4.1l14.6-7.8c-9.4,33.3-30.3,65.6-58.7,85.8-6.1,4.3-16.6,11-23.9,12.1-1.4.2-3,.6-2.4-1.4s2.2-4.3,3-7,.9-.5,1-.5c1.5,2.3,1.2-2.5,2.3-3.7s4.1-2.2,5.7-3.8c20.1-18.9,36.5-41.1,45.5-67.5l4.5-1c-.1-.5-1-.8-1-1Z"/>
  <path class="st4" d="M180.4,223.1c-2.7,20.3,11.7,57.4-2.1,74.4-.7.8-.7,1.6-2.2,1.5-8.5-.7-17.9-18.8-24.2-23.9-.9-1.9-.9-9.2-.6-11.5.5-4.1,19.6-31,23.5-35.5s3.5-3.7,5.5-5Z"/>
</svg>