<?xml version="1.0" encoding="UTF-8"?>
<svg id="Layer_1" xmlns="http://www.w3.org/2000/svg" xmlns:xlink="http://www.w3.org/1999/xlink" version="1.1" viewBox="0 0 292.3 355.7">
  <!-- Generator: Adobe Illustrator 29.5.0, SVG Export Plug-In . SVG Version: 2.1.0 Build 137)  -->
  <defs>
    <style>
      .st0 {
        fill: url(#linear-gradient1);
      }

      .st1 {
        fill: url(#linear-gradient);
      }

      .st2 {
        fill: #fff;
      }

      .st3 {
        fill: #00334d;
      }

      .st4 {
        fill: #c4cfe2;
      }
    </style>
    <linearGradient id="linear-gradient" x1="11.8" y1="159.7" x2="279.4" y2="159.7" gradientUnits="userSpaceOnUse">
      <stop offset=".2" stop-color="#f5f7fa"/>
      <stop offset=".5" stop-color="#dbe1ed"/>
      <stop offset=".8" stop-color="#cad3e4"/>
      <stop offset="1" stop-color="#c4cfe2"/>
    </linearGradient>
    <linearGradient id="linear-gradient1" x1="151.2" y1="261" x2="184.4" y2="261" xlink:href="#linear-gradient"/>
  </defs>
  <path class="st3" d="M153.4,296.1c-.2-.1-2.1-.4-2,.5.6,11.2-2.5,23.1-6.5,33.5s-8.4,18.8-11.6,22.4-11.9,4.8-12.8-1.9,4.8-10.9,8.1-16.8c6.6-11.6,8.7-28.5,9.8-41.7l-11,11.5c-37.1,30.9-98.9,4.4-110.3-39.7-3.8-14.8,19.6-21.5,30.8-21.8s6.5,1.1,10,1.1,8.1-.9,8.5-1.1,0-2.6-.2-3.3c-1.7-5.1-19.8-8.4-25.3-10.7C-1.2,211-3.8,164,2.7,124.9s1.4-16.6,10.4-18.6c19.2-4.1,46.6,4.5,61.3,17.3,4.9,4.3,15.8,20.2,20.6,20.5,7.4.5,1.7-14.1-.2-17.9-8.4-16.9-15.4-23-13.3-44.5,2.6-25.8,32.2-60.3,52.4-75.6,12.6-9.5,14.6-7.2,26,2,23.5,19,53.6,55.4,50.4,87.4-1.7,17.1-10.8,23.2-15.4,36.6s-4,13.7,2.5,11.6c3.8-1.2,17.2-18.4,22.5-22.6,13.9-11.1,40.5-17.7,57.9-15,10.7,1.6,11.2,18.8,12.4,27.6,6.7,49.4-3,93.6-33.5,133.3-19.2,24.9-68.2,68.6-98.4,36.6s-4.6-7.3-5-7.5Z"/>
  <path class="st2" d="M251.4,215.1c4.5-1.4,2.2,3.6-1.9,3.7-9.4,25.7-27.6,53.7-51,70.7-.8,2.7-2.7,7.1-4.1,2.7,1.6-5.7,2.2-17.5,2-23.5-.4-11.7-5-27.2-4.5-38,.3-8.3,8.6-8.8,15.3-10.2,14.5-2.9,29.7-2.6,44.2-5.3Z"/>
  <path class="st4" d="M251.4,215.1c-.1-1.2,7.7-3,9.4-4.1l14.6-7.8c-9.4,33.3-30.3,65.6-58.7,85.8-6.1,4.3-16.6,11-23.9,12.1-1.4.2-3,.6-2.4-1.4s2.2-4.3,3-7,.9-.5,1-.5c1.5,2.3,1.2-2.5,2.3-3.7s4.1-2.2,5.7-3.8c20.1-18.9,36.5-41.1,45.5-67.5l4.5-1c-.1-.5-1-.8-1-1Z"/>
  <g>
    <path class="st1" d="M278.4,144.6c-.6-8.7,0-17.9-4-26-17.9-.1-37.5,3.3-51.1,16-8.8,8.2-18.1,26.3-32.6,20.6-4.8-1.9-9.5-10.3-9.4-15.4.6-19.1,19.1-32.3,16.9-55.1-2-21.1-28.9-50.8-44.5-64.5-1-.9-6.8-5.8-7.2-5.9-2.3-.6-11.1,7.4-13.3,9.4-15.2,13.6-40.4,42.8-40.1,64,.3,19.7,15.6,33.2,17,50.1,1.1,13.6-10.9,22.5-23.4,16.4-5.9-2.8-9.7-10.4-13.9-15.1-6.6-7.1-14.1-12.4-23.3-15.7-8.5-3.1-22.9-5.9-31.7-4.3-1.1.2-2,.3-2.3,1.7-1.9,20.6-7.1,42.2-.6,62.3,4.9,15.3,15.5,26.5,30.1,32.9,10.8,4.7,21.8,4.6,29.9,14.1,6.2,7.3,6.7,15.5-1.6,21.5-9.6,6.9-19.7,2.6-30.3,3.7-2.4.2-14.3,3.1-14.5,5.4,8.4,17.5,22.1,35.4,41.4,41.6,29.3,9.5,51.7-3.9,67.5-28-3.1-.8-4.6-3.4-7.6-4.9-7.2-3.6-18.8-2.4-26.6-.8-3.4.7-15.1,5.8-16.1,5.6-3.4-.9-4.6-5.7-3.2-8.9,1.2-2.6,10.1-4.9,13.3-5.7,13.4-3.5,27.1-5.3,39.7,1.7.8.2.6-1,.5-1.5-7.4-23-39.9-51.2-58.5-66.5-9.8-8-20.3-15-30.5-22.5-3.1-11.1,4-9.8,11-5,27,18.5,58.9,47.6,78.7,73.3.6.8,1.4,1.9,2.4,2.1v-102.5c0-4.5-13.5-21.5-17-26-3-3.8-11.3-10.9-11.1-15,.2-4,4.7-5.5,8.1-4,4.6,2.1,14.7,19.8,20,23.5v-55.5c0-.4,4.2-4.5,5.5-4.5,1.2,0,4.5,3.1,4.5,3.5v74.5c2.3.6,1.6-.5,2.3-1.3,6.7-8.5,12.1-18.4,19.7-26.3,5.4-1.7,9.9,3.1,7.5,8.5-4.8,4.6-9,9.8-12.9,15.1-5.7,7.9-16.6,23.1-16.6,32.4v79.5c16.2-18.9,31.6-40.6,50.5-57,10.1-8.8,22.7-15.7,33.5-23.5,6.4-1.7,9.3,5.4,4.6,9.6-18,11.4-35.4,23.9-49.5,39.9,23.6-9,53.7-3,74.9-17.6,4-2.7,11.2-8.8,12.8-13.2,3.6-9.8,2-26.4,1.3-36.7Z"/>
    <path class="st0" d="M180.4,223.1c-2,1.2-4,3.2-5.5,5-3.9,4.4-23,31.4-23.5,35.5-.3,2.3-.3,9.6.6,11.5,6.3,5.1,15.7,23.2,24.2,23.9,1.4.1,1.5-.7,2.2-1.5,13.8-16.9-.5-54.1,2.1-74.4Z"/>
  </g>
</svg>